<svg width="33" height="44" viewBox="0 0 33 44" fill="none" xmlns="http://www.w3.org/2000/svg">
<g clip-path="url(#clip0_3278_2262)">
<path d="M19.0301 44C19.3002 42.9937 18.0848 43.6195 17.9019 43.4391C17.7697 37.1985 18.0848 30.924 17.916 24.6806C17.8738 23.1247 17.8738 17.5408 17.629 16.574C17.5502 16.264 16.9031 16.3823 16.7709 15.6833C16.5486 14.5051 16.6246 7.08343 16.9003 5.93058C17.2323 4.53532 20.2062 3.32891 21.3991 3.40502C21.5651 3.41629 21.5229 3.9152 21.7508 3.9744C23.1041 4.31264 25.1862 4.03359 26.4719 4.27318C27.0937 4.38875 27.4454 4.97504 28.1882 5.09624C32.6927 5.81783 35.0307 0.253703 30.7148 1.9924e-05C29.6456 -0.0619916 22.7553 1.56158 21.7536 2.06331C21.3654 2.2578 21.3485 2.68625 21.0615 2.83846C19.832 3.49803 17.5924 3.19361 16.5992 4.79746C16.18 4.87356 15.6708 4.00258 15.1643 3.75454C14.2218 3.28945 12.6434 3.22462 11.9288 2.83846C11.6418 2.68343 11.6249 2.25498 11.2366 2.06331C10.2688 1.5785 4.84709 0.259341 3.6232 0.0986746C-2.67913 -0.721569 0.179426 6.1899 5.04404 5.03987C5.59549 4.91021 5.93311 4.37183 6.51833 4.26472C7.80412 4.02795 9.88895 4.30418 11.2394 3.96594C11.4673 3.90957 11.4251 3.40784 11.5911 3.39656C12.6125 3.33173 15.6511 4.49867 16.0253 5.70508C16.3404 6.72827 16.4332 14.5361 16.2194 15.6748C16.0872 16.3739 15.4401 16.2555 15.3613 16.5656C15.1165 17.5324 15.1165 23.1162 15.0743 24.6722C14.9055 30.9128 15.2206 37.1872 15.0884 43.4306C14.9055 43.611 13.69 42.9881 13.9601 43.9916H19.0245L19.0301 44ZM22.125 2.56786C24.3815 2.6637 29.4852 0.00565736 31.3366 0.803351C32.0821 1.12468 32.7546 1.71943 31.6882 2.12814C31.0552 2.37055 29.6653 2.46075 29.2939 2.84128C28.1291 4.03923 31.9612 2.5735 31.9696 2.98503C30.9061 4.39156 29.097 4.66216 27.4679 4.25345L27.7493 3.12878C27.3132 3.13724 26.9221 3.39374 26.486 3.41065C26.1118 3.42475 20.9462 3.62206 22.125 2.56504V2.56786ZM0.742134 1.99848C0.795591 0.972473 1.93226 0.555305 2.8129 0.606042C4.52634 0.704696 8.0714 1.99848 9.96491 2.48894C10.2631 2.56786 11.1466 2.41283 10.8681 2.98503C10.4714 3.794 6.18633 3.41065 5.24661 3.1316L5.52796 4.25627C3.96364 4.68471 2.07294 4.29855 1.0263 2.98785L3.83703 3.41065C4.67546 2.62142 0.85749 2.14787 0.744948 1.99848H0.742134ZM15.9352 16.9404H17.0578L17.342 43.4391H15.6511L15.9352 16.9404Z" fill="#E51B25" fill-opacity="0.5"/>
</g>
<defs>
<clipPath id="clip0_3278_2262">
<rect width="33" height="44" fill="white" transform="matrix(-1 0 0 1 33 0)"/>
</clipPath>
</defs>
</svg>
