<svg width="41" height="41" viewBox="0 0 41 41" fill="none" xmlns="http://www.w3.org/2000/svg">
<path d="M0.534117 28.0521C0.361513 28.0161 0.105727 27.7747 0.0682949 27.5878C-0.00968871 27.1944 0.0111069 25.0383 0.0911701 24.6306C0.215944 23.9999 1.29628 24.2166 1.31603 24.0903L1.31915 8.60356C0.692164 8.20913 0.13796 8.42689 0.0620562 7.56406C-0.135502 5.30325 0.214904 2.76613 0.0693347 0.474507C0.125483 0.174573 0.432219 -0.0318894 0.734795 0.0040617H40.155C40.4316 -0.023672 40.6239 0.103698 40.7706 0.320431L40.8184 7.7582C40.7654 8.31493 40.0708 8.34985 39.6393 8.52344C39.4968 13.7004 39.6185 18.9472 39.5769 24.1488C40.0334 24.1385 40.6822 24.1016 40.8028 24.6326C40.8922 25.0312 40.8881 27.0506 40.8194 27.4799C40.7862 27.6823 40.5616 28.0511 40.3578 28.0511H26.2687L26.3259 28.3541L32.1414 39.2503C32.6145 40.2159 31.4874 40.7315 30.9051 39.8543L24.6061 28.1014L16.5426 28.0459L16.2255 28.1435L10.1895 40.0433C9.77778 40.4788 8.96987 40.3648 8.93555 39.692C10.7011 35.7466 12.8243 31.9389 14.7282 28.05H0.534117V28.0521ZM19.7181 1.34555H1.41793V7.20044C3.88533 7.93487 6.68027 7.40691 8.59243 5.71104C8.07462 5.40905 6.99844 5.05673 7.46114 4.28532C7.92385 3.51392 8.59347 4.24424 9.04265 4.44659C11.6723 5.62989 14.044 5.60011 16.7298 4.60786C17.1561 4.4507 19.7191 3.24274 19.7191 2.9387V1.34658L19.7181 1.34555ZM39.4739 1.34555H21.1738C21.2944 1.60645 21.0397 2.90583 21.0906 2.96951C21.2237 3.13694 22.4506 3.82207 22.7314 3.9669C25.1499 5.21183 27.7286 5.71207 30.4029 4.96737C30.9165 4.82459 32.7538 3.91759 32.9608 3.93917C33.2301 3.9669 33.5295 4.33052 33.5462 4.58834C33.5919 5.3125 32.2641 5.62989 32.3005 5.71001C34.2366 7.40485 37.0076 7.92563 39.475 7.20044V1.34555H39.4739ZM35.6268 24.1488V8.998C35.6268 8.97643 35.7131 8.92404 35.6819 8.84289C35.5976 8.62513 34.7242 8.5409 34.4279 8.43613C33.0824 7.96363 31.8409 7.21277 30.772 6.29242C27.1567 7.2518 23.506 6.24928 20.4927 4.2165C19.6006 4.60786 18.7833 5.2406 17.8704 5.63298C16.4563 6.24106 14.4454 6.70432 12.9034 6.69302C12.4282 6.68994 10.1864 6.26982 10.0544 6.32529C9.85472 6.40952 9.4752 6.82655 9.25061 6.97755C8.81182 7.27337 8.32 7.61645 7.8521 7.85578C7.0234 8.27795 6.12294 8.49057 5.26201 8.81927L5.26512 24.1488H12.7516V18.8589C12.7516 18.4901 13.2881 17.8605 13.5896 17.6324C13.7726 17.4938 14.1511 17.4177 14.2551 17.2626C14.4266 17.0069 14.6128 16.219 14.8519 15.7979C17.2829 11.5043 23.663 11.4571 26.041 15.7979C26.2521 16.1831 26.4902 17.0706 26.6378 17.2626C26.7855 17.4547 27.3574 17.5903 27.5861 17.8153C27.6984 17.9262 28.1414 18.75 28.1414 18.8589V24.1488H35.6278H35.6268ZM2.66567 8.84392V24.1488H3.91341L3.85934 9.09866C3.85934 8.60973 3.03479 8.9302 2.66567 8.84392ZM38.2262 8.84392C37.8571 8.92918 37.0325 8.60973 37.0325 9.09866L37.0825 24.1498H38.2272V8.84392H38.2262ZM25.2092 17.5564C25.3579 17.3089 24.812 16.3926 24.6477 16.1461C22.5141 12.9444 17.6458 13.2269 15.9343 16.6628C15.3219 17.8913 15.9385 17.3921 16.4126 18.221C16.632 18.6052 16.6518 19.0171 16.762 19.4279L24.1881 19.4228C24.1746 18.6955 24.4065 18.2189 24.916 17.7238C24.9981 17.6447 25.1894 17.5903 25.2092 17.5564ZM14.1033 19.0643V24.1488H15.351V19.167C15.351 18.5641 14.252 18.3812 14.1033 19.0643ZM25.5409 19.167V24.1488H26.7886V19.0643C26.7886 18.6288 25.6667 18.336 25.5409 19.167ZM24.1892 20.8619H16.7027V21.9918H24.1892V20.8619ZM24.1892 23.3271H16.7027V24.1488H24.1892V23.3271ZM39.4739 25.4841H1.41793V26.7168H39.4739V25.4841Z" fill="#ED1C25" fill-opacity="0.5"/>
<path d="M40.6976 30.3901C40.5832 30.5031 40.316 30.5083 40.1548 30.5216C36.5613 30.8205 32.553 30.2854 28.9158 30.5216C28.1672 30.424 28.0382 29.2972 29.1269 29.1781C32.6112 29.4462 36.6258 28.8288 40.0467 29.1812C40.7319 29.252 41.1603 29.931 40.6976 30.3891V30.3901Z" fill="#ED1C25" fill-opacity="0.5"/>
<path d="M12.4101 29.4138C12.7179 29.7374 12.487 30.5386 11.9754 30.5221L0.634547 30.517C-0.301257 30.4615 -0.0714653 29.1519 0.841463 29.1786C4.32681 29.419 8.22703 28.8694 11.6625 29.1755C11.8683 29.194 12.2739 29.27 12.409 29.4128L12.4101 29.4138Z" fill="#ED1C25" fill-opacity="0.5"/>
<path d="M0.451508 31.7717L10.6206 31.748C11.5189 31.7799 11.4524 32.9837 10.6237 33.0906L0.738488 33.0875C-0.0559056 33.0608 -0.212913 32.125 0.450468 31.7717H0.451508Z" fill="#ED1C25" fill-opacity="0.5"/>
<path d="M29.8295 31.8789C29.9574 31.7587 30.1997 31.7598 30.3702 31.7454C33.527 31.4783 37.0602 31.958 40.2575 31.7444C41.1122 31.8553 40.9906 33.0663 40.1504 33.0869C37.0643 32.8219 33.3866 33.4341 30.3723 33.0869C29.7432 33.015 29.3169 32.3586 29.8295 31.8789Z" fill="#ED1C25" fill-opacity="0.5"/>
<path d="M9.81537 35.4229C9.70099 35.5359 9.43377 35.541 9.2726 35.5544C6.51302 35.7845 3.43111 35.3746 0.636173 35.5503C-0.212289 35.4619 -0.246602 34.3341 0.846209 34.215C3.46646 33.9284 6.59516 34.4307 9.27052 34.2129C9.91623 34.14 10.1741 35.0685 9.81537 35.4239V35.4229Z" fill="#ED1C25" fill-opacity="0.5"/>
<path d="M40.6965 35.4228C40.5821 35.5358 40.3149 35.5409 40.1538 35.5543C37.3942 35.7834 34.3123 35.3745 31.5173 35.5502C30.6533 35.5461 30.7437 34.2036 31.6203 34.2128C34.2925 34.4336 37.4295 33.9252 40.0446 34.2149C40.2609 34.2385 40.6726 34.3207 40.7735 34.521C40.8743 34.7213 40.8514 35.2687 40.6955 35.4228H40.6965Z" fill="#ED1C25" fill-opacity="0.5"/>
<path d="M40.696 36.9104C41.0817 37.2935 40.7937 38.0454 40.1511 38.1204C37.979 38.3741 35.3109 37.9324 33.0848 38.1122C32.2987 37.99 32.2841 36.8642 33.0733 36.7779C35.366 36.932 37.8896 36.5909 40.1532 36.7789C40.3144 36.7923 40.5816 36.7964 40.696 36.9104Z" fill="#ED1C25" fill-opacity="0.5"/>
<path d="M0.45039 36.8047L8.06887 36.8366C8.6106 37.1601 8.45151 38.0384 7.80477 38.1113C5.57755 37.9326 2.91259 38.3722 0.738409 38.1195C-0.0445463 38.0291 -0.211951 37.1776 0.45039 36.8037V36.8047Z" fill="#ED1C25" fill-opacity="0.5"/>
<path d="M29.2841 20.7594H31.2596V10.2308H9.63218V20.7594H11.6078C11.5516 21.05 11.7596 21.9766 11.4372 22.0803C11.2386 22.145 9.13308 22.1296 8.87418 22.0731C8.61527 22.0166 8.36157 21.7691 8.3023 21.5082L8.27734 9.50974C8.28566 9.17796 8.49258 8.90576 8.79412 8.78764L31.4198 8.7373C32.0634 8.78353 32.6228 8.8318 32.6155 9.6104L32.5885 21.5082C32.5292 21.7691 32.2828 22.0146 32.0166 22.0731C31.7504 22.1317 29.6532 22.145 29.4535 22.0803C29.1312 21.9755 29.3392 21.05 29.283 20.7594H29.2841Z" fill="#ED1C25" fill-opacity="0.5"/>
</svg>
