<svg width="1543" height="359" viewBox="0 0 1543 359" fill="none" xmlns="http://www.w3.org/2000/svg">
<path fill-rule="evenodd" clip-rule="evenodd" d="M611.936 189.683C611.936 171.363 610.186 158.896 606.761 152.283C603.641 146.582 598.39 143.693 590.856 143.693H580.887V237.42H590.323C597.781 237.42 603.185 234.456 606.229 228.526C610.034 221.533 611.936 208.534 611.936 189.683ZM628.298 188.466C628.298 210.891 625.787 227.158 620.688 237.268C615.361 247.758 606.533 253.003 594.281 253.003H565.21V128.11H594.737C605.544 128.11 613.534 131.531 618.481 138.448C625.026 147.646 628.298 164.37 628.298 188.466ZM553.338 253.003H498.849V128.11H551.968V145.062H514.678V179.725H549.761V196.524H514.678V236.052H553.414V253.003H553.338ZM468.941 163.609C468.941 150.307 463.461 143.693 452.655 143.693H440.859V183.905H452.655C463.537 183.905 468.941 177.14 468.941 163.609ZM489.184 253.003H471.3C469.169 249.735 468.103 240.613 468.103 225.714C468.103 214.768 467.038 207.47 464.907 203.821C463.081 200.553 459.352 198.88 453.872 198.88H440.783V253.003H425.03V128.11H459.276C466.429 128.11 472.137 130.163 476.475 134.267C482.335 139.817 485.226 148.786 485.226 161.025C485.226 169.158 483.628 176 480.432 181.625C477.236 187.174 473.507 190.291 469.245 191.127V191.507C474.572 192.647 478.377 195.232 480.508 199.185C483.172 204.202 484.465 212.867 484.465 225.258C484.465 240.385 486.064 249.659 489.184 253.079V253.003ZM413.995 253.003H359.506V128.11H412.625V145.062H375.335V179.725H410.418V196.524H375.335V236.052H413.995V253.003ZM351.439 145.442H327.924V253.003H312.17V145.442H288.579V128.11H351.439V145.442ZM265.52 163.609C265.52 150.307 260.117 143.693 249.158 143.693H237.362V183.905H249.158C260.117 183.905 265.52 177.14 265.52 163.609ZM285.763 253.003H267.879C265.748 249.735 264.759 240.613 264.759 225.714C264.759 214.768 263.617 207.47 261.563 203.821C259.736 200.553 256.007 198.88 250.452 198.88H237.438V253.003H221.685V128.11H255.931C263.085 128.11 268.792 130.163 273.13 134.267C278.914 139.817 281.882 148.786 281.882 161.025C281.882 169.158 280.284 176 277.087 181.625C273.891 187.174 270.086 190.291 265.9 191.127V191.507C271.304 192.647 275.033 195.232 277.164 199.185C279.903 204.202 281.197 212.867 281.197 225.258C281.197 240.385 282.719 249.659 285.839 253.079L285.763 253.003ZM189.951 206.33L178.84 147.874H178.611L166.663 206.33H189.951ZM215.216 253.003H198.855L192.614 222.217H164L157.836 253.003H141.321L168.794 128.11H189.418L215.216 253.003ZM134.929 253.003H119.1V195.308H89.9526V253.688L74.1234 253.003V128.11H89.9526V177.976H119.1V128.11H134.929V253.003ZM63.6213 208.23C63.6213 222.597 61.0338 233.924 55.7067 242.361C50.2273 251.179 42.3888 255.512 32.4195 255.512C21.5369 255.512 13.5462 251.179 8.59953 242.513C2.89188 232.555 0 215.528 0 191.279C0 167.03 2.51137 151.447 7.458 141.185C12.4807 130.847 20.852 125.678 32.7239 125.678C52.7387 125.678 62.8603 139.437 62.8603 166.802H46.8788C46.8788 149.395 42.1605 140.729 32.7239 140.729C26.1791 140.729 21.7652 145.062 19.406 153.803C17.3513 161.177 16.438 173.719 16.438 191.431C16.438 209.143 17.6557 222.749 20.0909 229.819C22.5262 236.812 26.7118 240.385 32.5717 240.385C42.6171 240.385 47.5638 229.667 47.5638 208.23H63.6213Z" fill="white"/>
<path d="M1025.7 187.856C1043.82 190.896 1059.42 202.527 1059.42 220.694C1059.42 241.219 1039.71 253.153 1013.22 253.153H972.508V252.165C984.151 252.165 984.836 245.703 984.836 233.009V148.86C984.836 136.241 984.151 129.704 972.508 129.704V128.64H1010.86C1037.58 128.64 1052.95 139.586 1052.95 158.058C1052.95 176.53 1037.73 184.359 1025.7 187.476V187.78V187.856ZM1000.89 131.452C996.784 131.452 994.425 133.505 994.425 137.61V187.02H1009.65C1032.25 187.02 1042.37 177.29 1042.37 160.49C1042.37 141.715 1030.57 131.452 1010.18 131.452H1000.97H1000.89ZM1048.46 220.694C1048.46 200.322 1034.23 189.756 1010.33 189.756H994.425V239.47C994.425 245.247 994.425 250.416 1011.7 250.416C1035.52 250.416 1048.46 240.002 1048.46 220.694Z" fill="white"/>
<path d="M1067.48 253.154V252.165C1074.48 252.165 1075.02 246.388 1075.02 235.442V184.816C1075.02 173.87 1072.13 169.765 1066.27 168.777V167.788L1082.86 162.011H1083.54V235.518C1083.54 246.464 1084.07 252.241 1091.07 252.241V253.23H1067.48V253.154ZM1069.31 138.218C1069.31 134.114 1072.73 130.693 1076.84 130.693C1080.95 130.693 1084.38 134.114 1084.38 138.218C1084.38 142.323 1080.95 145.744 1076.84 145.744C1072.73 145.744 1069.31 142.323 1069.31 138.218Z" fill="white"/>
<path d="M1143.43 162.848L1140.84 173.414H1139.86C1136.43 171.894 1133.54 171.057 1130.65 171.057C1124.48 171.057 1119.16 175.01 1114.21 182.84V235.366C1114.21 246.313 1114.74 252.09 1121.74 252.09V253.078H1098.15V252.09C1105.15 252.09 1105.69 246.313 1105.69 235.366V184.74C1105.69 173.794 1102.79 169.689 1096.93 168.701V167.713L1113.52 161.936H1114.21V180.255C1121.21 169.461 1128.44 161.632 1136.96 161.632C1138.64 161.632 1141.07 162.012 1143.43 163V162.848Z" fill="white"/>
<path d="M1215.35 233.998C1215.35 244.945 1217.94 248.365 1224.1 249.734V250.722L1209.56 255.131H1208.88L1206.98 237.343C1199.82 247.225 1190.69 255.131 1177.53 255.131C1156.98 255.131 1142.98 235.671 1142.98 209.445C1142.98 180.864 1160.78 161.404 1183.39 161.404C1192.29 161.404 1200.51 164.52 1206.83 169.081V140.88C1206.83 129.933 1203.93 125.829 1198.07 124.84V123.852L1214.66 119.443H1215.35V233.998ZM1206.75 235.367V190.214C1206.75 175.163 1197.31 163.912 1182.62 163.912C1162.91 163.912 1152.18 184.056 1152.18 206.481C1152.18 228.905 1162.76 249.049 1182.32 249.049C1192.9 249.049 1200.81 242.74 1206.83 235.367H1206.75Z" fill="white"/>
<path d="M1231.03 249.353L1229.66 230.045H1230.65C1236.43 245.628 1244.5 252.773 1256.83 252.773C1267.78 252.773 1277.91 246.996 1277.91 234.682C1277.91 223.736 1270.9 219.783 1257.05 212.257L1250.74 208.837C1240.62 203.363 1232.24 197.89 1232.24 184.892C1232.24 170.525 1243.2 161.479 1258.58 161.479C1265.58 161.479 1274.33 163.227 1280.65 166.952V182.839H1279.66C1276.08 169.993 1267.18 163.835 1257.59 163.835C1246.63 163.835 1238.94 170.677 1238.94 180.939C1238.94 191.201 1246.32 195.838 1255.38 200.627L1261.7 204.048C1274.71 211.041 1284.6 215.83 1284.6 230.197C1284.6 244.564 1272.65 255.13 1255.53 255.13C1246.09 255.13 1237.04 252.545 1231.03 249.353Z" fill="white"/>
<path d="M1292.14 208.685C1292.14 180.331 1309.94 161.479 1332.85 161.479C1355.76 161.479 1373.26 179.267 1373.26 208C1373.26 236.734 1355.45 255.206 1332.55 255.206C1309.64 255.206 1292.14 237.418 1292.14 208.685ZM1363.67 208.38C1363.67 182.915 1351.88 163.911 1332.55 163.911C1313.22 163.911 1301.73 181.851 1301.73 208.38C1301.73 234.91 1313.52 252.849 1332.85 252.849C1352.18 252.849 1363.67 234.91 1363.67 208.38Z" fill="white"/>
<path d="M1450.28 235.366C1450.28 246.313 1450.81 252.09 1457.81 252.09V253.078H1434.22V252.09C1441.22 252.09 1441.75 246.313 1441.75 235.366V190.213C1441.75 175.846 1435.97 168.321 1424.33 168.321C1414.89 168.321 1405.83 173.262 1397.46 180.483V235.366C1397.46 246.313 1397.99 252.09 1405 252.09V253.078H1381.4V252.09C1388.41 252.09 1388.94 246.313 1388.94 235.366V184.74C1388.94 173.794 1386.05 169.689 1380.19 168.701V167.713L1396.78 161.936H1397.46V178.887C1406.67 169.157 1417.48 161.632 1428.97 161.632C1441.98 161.632 1450.35 170.829 1450.35 188.313V235.518L1450.28 235.366Z" fill="white"/>
<path d="M1514.28 235.747C1531.93 235.747 1541.83 242.436 1541.83 256.803C1541.83 280.368 1516.64 294.279 1496.17 294.279C1477.14 294.279 1463.97 283.18 1463.97 267.293C1463.97 259.768 1467.4 253.611 1475.62 248.137L1477.83 246.921H1478.51C1473.56 251.178 1471.36 257.031 1471.36 263.34C1471.36 278.239 1483.69 289.186 1502.33 289.186C1520.98 289.186 1535.74 278.239 1535.74 262.504C1535.74 251.71 1528.36 245.097 1514.66 245.097H1479.42C1470.9 245.097 1467.09 240.688 1467.09 235.519C1467.09 229.058 1472.19 225.257 1482.7 219.632C1472.57 214.995 1465.73 205.265 1465.73 192.114C1465.73 173.642 1479.27 161.708 1496.85 161.708C1503.7 161.708 1509.86 163.456 1514.81 166.801L1542.21 162.696L1539.09 170.526L1517.55 168.777C1523.71 173.87 1527.44 181.776 1527.44 191.658C1527.44 210.13 1514.28 222.292 1496.47 222.292C1492.21 222.292 1488.1 221.608 1484.45 220.24C1477.06 225.333 1474.55 228.069 1474.55 231.186C1474.55 233.923 1476.46 235.823 1480.18 235.823H1514.28V235.747ZM1475.24 191.734C1475.24 208.153 1483.08 219.784 1496.62 219.784C1510.17 219.784 1517.85 208.153 1517.85 191.734C1517.85 175.315 1509.94 163.836 1496.62 163.836C1483.3 163.836 1475.24 175.315 1475.24 191.734Z" fill="white"/>
<path fill-rule="evenodd" clip-rule="evenodd" d="M673.503 273.83C640.475 275.73 575.712 300.815 563.688 319.743C560.948 324 559.731 328.181 559.883 331.754C559.883 333.502 560.34 335.098 561.101 336.467C561.786 337.759 562.851 338.823 564.145 339.659C566.58 341.18 570.005 342.016 574.495 341.864C593.444 341.104 651.282 301.88 673.503 273.83ZM704.02 143.084C703.564 160.567 711.25 177.367 730.047 187.477C749.986 152.814 768.555 116.934 784.003 87.2124C785.754 83.7917 787.504 80.523 789.178 77.3304C763.38 70.6411 740.701 79.7629 725.253 95.422C718.784 101.959 713.609 109.713 709.956 117.923C706.303 126.132 704.249 134.722 704.02 143.084ZM721.448 202.148C696.562 188.693 686.365 166.116 686.973 142.704C687.278 131.985 689.865 121.191 694.279 111.081C698.769 101.047 705.162 91.5453 713.076 83.4876C733.243 62.9635 763.304 51.4092 797.169 61.8993C810.867 36.0541 830.121 17.8864 851.43 8.15645C863.987 2.4553 877.228 -0.281247 890.622 0.0228141C904.016 0.326875 917.334 3.74756 930.043 10.3609C951.656 21.6872 971.214 42.3634 985.217 73.2256L990.164 84.0958L978.292 85.236C925.173 90.329 920.683 118.303 916.193 145.896C914.138 158.667 912.083 171.437 906.375 182.916C905.234 185.12 903.407 186.564 901.048 187.173C898.765 187.781 896.558 187.401 894.58 186.108C894.504 186.108 894.427 185.956 894.275 185.956L893.743 185.576C890.47 183.22 889.329 178.963 891.155 175.314C895.797 165.964 897.624 154.638 899.45 143.236C904.549 111.309 909.8 79.1548 964.593 69.8809C952.874 48.4446 938.11 33.6976 922.205 25.4119C911.931 20.0148 901.124 17.2023 890.394 16.9742C879.664 16.7462 868.857 19.0266 858.583 23.6636C840.928 31.6452 824.946 46.7722 813.074 68.2846C833.85 78.6987 847.853 94.5859 855.844 112.982C861.551 126.132 864.139 140.423 863.911 154.942C863.911 158.895 863.53 162.924 863.073 166.876C861.78 177.291 859.04 187.629 854.93 197.511C844.124 223.508 823.957 246.236 796.18 258.323C768.555 270.333 733.319 271.626 699.302 272.842L694.812 272.994C666.578 310.697 601.511 357.903 575.103 358.967C566.96 359.271 560.187 357.447 554.936 354.102C551.131 351.67 548.163 348.477 546.109 344.752C544.13 341.104 542.988 336.999 542.836 332.514C542.532 325.596 544.663 317.995 549.305 310.697C567.569 282.04 643.367 258.019 686.669 256.27C698.389 239.851 710.108 221.379 721.448 202.224V202.148ZM903.407 33.1655C909.343 33.1655 914.138 37.9545 914.138 43.8837C914.138 49.8129 909.343 54.6018 903.407 54.6018C897.472 54.6018 892.677 49.8129 892.677 43.8837C892.677 37.9545 897.472 33.1655 903.407 33.1655ZM821.141 140.879V141.183C824.566 155.474 823.424 167.865 819.239 178.051C816.118 185.576 811.4 191.885 805.464 196.979C799.68 201.92 792.907 205.644 785.449 208.229C770.609 213.246 753.106 213.474 737.201 208.685C727.536 224.952 717.566 240.763 707.369 255.434C737.048 254.294 766.88 252.47 789.407 242.664C812.846 232.478 829.969 213.094 839.177 190.897C843.743 179.951 846.331 168.321 846.864 156.842C846.864 156.082 846.864 155.322 846.864 154.562C847.092 142.476 844.961 130.541 840.243 119.671C833.774 104.772 822.207 91.7733 805.16 83.2596C803.181 87.0604 801.202 90.9371 799.148 94.8899C783.927 124.156 765.739 159.199 746.029 193.406C757.444 196.066 769.544 195.534 779.894 192.038C785.297 190.213 790.244 187.477 794.353 183.98C798.311 180.635 801.431 176.454 803.409 171.513C806.301 164.368 806.986 155.474 804.475 144.756C803.486 140.651 805.769 136.47 809.802 135.178L810.411 134.95C812.694 134.19 814.901 134.418 817.032 135.558C819.163 136.698 820.456 138.523 821.065 140.803" fill="white"/>
</svg>
