<svg width="52" height="52" viewBox="0 0 52 52" fill="none" xmlns="http://www.w3.org/2000/svg">
<path d="M0.554791 51.9991C-0.194493 51.764 -0.0267432 50.272 0.605624 50.272H13.0354V43.162C8.95043 45.3532 3.97283 44.0261 1.46572 40.1678C-1.45923 35.6654 0.165407 29.6098 4.81158 27.0491C4.50556 26.295 4.04603 25.6141 3.79898 24.8315C2.35836 20.273 4.9773 15.6453 9.58788 14.5676C9.56552 14.3783 9.50858 13.9874 9.31847 13.9223C6.49721 13.6557 2.81688 14.8016 0.859791 12.1311C-1.03833 9.54194 0.431774 5.89436 3.50821 5.21043C4.68449 -1.65424 14.2422 -1.76721 15.5862 5.05777C19.6966 5.29694 22.5738 8.58425 22.1559 12.7275C22.0898 13.3819 21.8042 13.9864 21.6608 14.6184C26.2785 15.5487 28.8649 20.2852 27.4914 24.7725C27.2444 25.5805 26.7868 26.2909 26.4361 27.0491C30.3116 29.2139 32.165 33.696 30.8444 37.9817C29.3722 42.759 24.0154 45.4876 19.3011 43.6465C18.9595 43.5132 18.6454 43.3137 18.3129 43.1631V50.273H32.9245V47.7337C30.6146 48.095 30.5617 45.4682 32.9245 45.9059V45.0927C30.5546 45.5283 30.6207 42.9005 32.9245 43.2648V40.7256C32.0522 40.806 30.9521 40.7754 31.2205 39.5796C31.4279 38.6555 32.7303 39.1481 32.9133 38.9873C32.9357 38.9679 32.9804 38.627 33.1248 38.4377C33.4562 38.0041 34.0601 37.9756 34.4413 38.343C34.6904 38.5832 34.5644 39.0392 34.9985 39.0046H48.4917C48.5679 37.9878 49.8459 37.7242 50.2434 38.6768C50.2841 38.7735 50.2566 38.9679 50.28 38.9924C50.3725 39.088 51.8233 38.7715 51.9992 39.5063V40.2177C51.6047 40.9006 50.9561 40.7113 50.2739 40.7256V43.2648C50.9683 43.218 51.5051 43.2353 51.9992 43.7727V44.5848C51.5996 45.2637 50.9114 45.0255 50.2729 45.1507V45.9059C50.9561 45.9018 51.5732 45.7603 51.9992 46.4137V47.2259C51.5051 47.7633 50.9683 47.7806 50.2739 47.7337V50.273C50.9561 50.2873 51.6037 50.098 51.9992 50.7809V52.0001H0.554791V51.9991ZM9.07853 12.0802C8.97687 9.37605 10.4094 7.02507 12.764 5.76408C12.9683 5.65417 13.684 5.48726 13.7379 5.31221C12.89 0.636699 6.27558 0.617362 5.33211 5.33256C5.21723 5.90657 5.47038 6.59965 4.67229 6.90701C4.00536 7.1645 3.64139 6.92431 2.89821 7.46677C0.946208 8.89161 1.83274 11.8736 4.25546 12.0832C5.7947 12.2166 7.51998 11.9764 9.07955 12.0802H9.07853ZM16.5866 36.6607C18.2377 35.2247 19.6071 33.4487 21.3385 32.1195C22.403 31.8478 22.9632 32.7546 22.2657 33.6614C20.8343 35.5249 18.259 37.2429 16.8367 39.0962C16.7788 39.1715 16.671 39.2152 16.6964 39.3384C18.6271 42.0334 21.8489 43.1366 24.9762 41.8603C30.152 39.7465 31.0304 32.5195 26.4615 29.2658C25.9613 28.9096 24.1242 28.1198 24.0154 27.7534C23.7653 26.9118 24.5319 26.4935 24.9487 25.8859C27.3206 22.4276 25.6705 17.4254 21.5388 16.4178C20.9481 16.2733 19.7556 16.3364 19.4262 15.8916C18.869 15.1395 19.5878 14.6276 19.8837 14.0078C20.9146 11.8481 20.2741 9.04427 18.2458 7.72833C14.2137 5.11069 9.50045 9.30684 11.2623 13.7035C11.4789 14.2449 12.0889 14.9309 12.0198 15.4733C11.8967 16.4412 10.5232 16.2265 9.78613 16.3934C5.55171 17.3521 3.96368 22.4194 6.35691 25.9276C6.67411 26.3927 7.43458 26.9464 7.33698 27.5438C7.21905 28.2613 6.04276 28.4913 5.46021 28.8221C-1.28334 32.6559 2.10419 43.4328 9.8268 42.3356C11.7595 42.0608 13.4665 40.9413 14.5452 39.3333L14.4648 39.147L8.97788 33.6635C8.16862 32.7271 9.1436 31.5639 10.1908 32.2468L14.7617 36.7625V28.1788L10.751 24.1689C9.84917 22.967 10.9604 21.9431 12.1763 22.9456C13.07 23.6825 13.8284 24.7684 14.7617 25.4869V21.3732C14.7617 21.2918 15.0667 20.9325 15.1755 20.8715C15.7641 20.5407 16.5887 21.0414 16.5887 21.6775V25.3851C17.3756 24.9292 18.808 22.8469 19.536 22.5965C20.6614 22.2108 21.2572 23.2133 20.4967 24.1669C19.4221 25.5154 17.7243 26.7347 16.5897 28.0771V36.6607H16.5866ZM48.448 40.7245H34.7494V43.2638H48.448V40.7245ZM16.485 50.272V41.8919C16.485 41.8268 15.7326 41.0685 15.6228 40.9291L14.7627 41.9957L14.7556 49.9219C14.7332 50.0257 14.8288 50.272 14.9132 50.272H16.486H16.485ZM48.448 45.0917H34.7494V45.9038H48.448V45.0917ZM48.448 47.7327H34.7494V50.272H48.448V47.7327Z" fill="#ED1C25" fill-opacity="0.5"/>
<path d="M51.9982 18.1742C51.3658 20.3674 49.8754 21.5775 47.5889 21.7332C44.7086 21.9296 40.2109 21.9337 37.3317 21.7332C32.3643 21.3882 31.2896 15.2054 35.5922 13.2788C35.8026 13.1852 36.3272 13.1404 36.4248 12.9949C36.5102 12.8676 36.5214 12.3913 36.6048 12.1593C38.8821 5.76889 47.3103 6.55967 48.5395 13.0315C49.9516 13.3806 51.1076 14.2375 51.6799 15.5993L51.9992 16.5488V18.1742H51.9982ZM37.9631 14.4859C37.5859 14.8899 36.5123 14.7454 35.8708 15.184C33.7612 16.6292 34.7036 19.6977 37.3317 19.9043C40.7162 20.171 44.4555 19.7069 47.8776 19.8901C50.5819 19.5756 51.0272 15.8873 48.6472 14.9764C47.9864 14.724 47.112 14.9479 46.8253 14.1592C46.6098 13.5668 46.7044 12.891 46.3922 12.1542C44.915 8.67047 39.7544 8.78242 38.4826 12.314C38.2813 12.8748 38.2345 14.1938 37.962 14.4859H37.9631Z" fill="#ED1C25" fill-opacity="0.5"/>
</svg>
