<svg width="53" height="40" viewBox="0 0 53 40" fill="none" xmlns="http://www.w3.org/2000/svg">
<path d="M45.2709 10.3187H52.3678C52.7343 10.3187 52.973 11.0749 52.6884 11.4232C52.6503 11.4701 52.3205 11.6691 52.2972 11.6691H32.9838V25.5286C33.8891 24.805 35.1602 24.6536 36.2314 25.0673C37.6607 25.6195 38.5737 27.9451 40.4648 26.5542C41.7889 25.5797 42.2563 24.4653 44.3014 24.906C45.7243 25.213 46.2482 26.5343 47.304 26.8591C48.9691 27.3715 49.5418 25.675 50.8248 25.1121C51.2683 24.9173 52.2986 24.6551 52.6637 25.0524C52.98 25.3964 52.819 26.0438 52.353 26.1526C51.6694 26.3125 51.5261 26.1704 50.8863 26.6665C49.599 27.6651 49.1025 28.5897 47.1599 28.2102C45.3528 27.857 44.6495 25.353 42.608 26.4369C41.433 27.0609 41.1915 28.282 39.3703 28.3019C37.5385 28.3218 37.2808 27.2905 36.069 26.5087C34.2097 25.3097 33.4287 27.3872 32.0199 28.0048C31.1676 28.3786 30.102 28.3644 29.2638 27.9565C27.9249 27.3047 27.2258 25.348 25.363 26.493C24.1632 27.2301 23.9062 28.3225 22.0772 28.3019C20.2356 28.2813 19.999 27.0915 18.7851 26.4205C16.9604 25.4113 16.2225 27.4291 14.8603 28.0048C13.9649 28.3836 12.8739 28.3708 12.0074 27.9117C10.8006 27.272 10.3826 25.7731 8.69132 26.2741C7.82557 26.53 7.33903 27.4561 6.55025 27.8861C5.6958 28.3516 4.4798 28.3936 3.59146 27.9963C2.70311 27.599 2.07463 26.4767 1.16652 26.2436C0.663026 26.1142 -0.14058 26.2059 0.0211298 25.3679C0.18284 24.53 1.46946 24.8761 2.00825 25.1121C3.07879 25.5804 3.67831 26.9301 4.91409 26.955C6.10467 26.9792 6.51212 26.0133 7.36869 25.4404C8.32765 24.7986 9.37347 24.6636 10.4553 25.0673C11.6233 25.503 12.2687 26.9515 13.5285 26.9557C15.0418 26.9614 15.5615 25.1426 17.024 24.9593V11.6684H0.606533C0.185664 11.6684 -0.104566 11.0906 0.0599684 10.6911C0.0882147 10.6229 0.369971 10.318 0.394687 10.318H17.0247C16.9964 8.55676 16.9759 6.86093 17.6263 5.20205C19.7956 -0.332493 27.0133 -1.78951 31.1224 2.49484C32.0524 1.68744 33.0502 0.934049 34.2182 0.508315C38.0766 -0.897533 42.339 0.691687 44.2943 4.30012C44.6679 4.98883 45.2709 6.5347 45.2709 7.29732V10.318V10.3187ZM30.1903 3.46713C29.9219 3.12029 29.5159 2.80472 29.1508 2.55596C24.6081 -0.534343 18.7138 2.56378 18.3635 7.93486L18.3734 24.8825C18.9278 24.9251 19.3571 25.2514 19.8493 25.4575L19.8472 7.65127C20.4057 2.7699 26.562 1.05345 29.5597 4.91634L30.3054 3.53821C30.3011 3.49272 30.2128 3.49485 30.1917 3.46713H30.1903ZM42.5169 10.3187H43.8939C43.9716 10.3187 43.9949 10.1453 44.0034 10.0735C44.2096 8.30729 43.836 5.96752 42.8566 4.46857C39.9677 0.0491758 33.3171 0.382514 30.9564 5.11534C30.729 5.57093 30.2298 6.90357 30.2298 7.36911V26.879C30.71 27.0012 31.2262 26.9799 31.6449 26.6885L31.6393 8.00522C31.9733 2.75497 38.6097 0.841653 41.5862 5.1786C41.9308 5.68038 42.5176 6.99241 42.5176 7.58162V10.318L42.5169 10.3187ZM28.8881 10.3187C28.9178 9.45655 28.85 8.58376 28.8853 7.72163C28.8994 7.37764 29.0759 6.86235 28.9976 6.55104C28.7101 5.40391 26.865 4.24682 25.745 4.13594C23.5383 3.91774 21.1204 5.68536 21.1204 8.00877V10.2121C21.1204 10.2199 21.2185 10.3187 21.2263 10.3187H28.8881ZM41.1752 10.3187V7.58233C41.1752 7.29021 40.7868 6.42951 40.6223 6.14876C39.2707 3.84525 36.093 3.42449 34.1913 5.31506C33.7083 5.79552 32.9838 7.04501 32.9838 7.72448V10.3187H41.1752ZM28.8881 11.6691H21.1204V13.8724H28.8881V11.6691ZM28.8881 15.2228H21.1204V17.3906C21.1204 17.3984 21.2185 17.4972 21.2263 17.4972H28.8881V15.2228ZM28.8881 21.0509V18.8831C28.8881 18.8753 28.7899 18.7765 28.7822 18.7765H21.2263C21.2185 18.7765 21.1204 18.8753 21.1204 18.8831V21.0509H28.8881ZM28.8881 22.4013H21.1204V26.6302C21.1204 26.7432 21.8032 26.9287 21.9402 26.9422C23.2466 27.073 23.683 25.9557 24.6024 25.3722C26.0359 24.4625 27.6763 24.7787 28.8888 25.8839V22.4013H28.8881Z" fill="#ED1C25" fill-opacity="0.5"/>
<path d="M3.08318 37.5699C3.59655 37.9928 3.88467 38.5202 4.63107 38.6069C6.47414 38.8208 6.92608 36.7554 8.87719 36.5543C11.1221 36.3226 11.2598 37.7377 12.7024 38.4442C14.4537 39.3013 15.1775 37.405 16.4825 36.8173C17.3553 36.4242 18.4837 36.4527 19.3333 36.8883C20.5733 37.5237 20.819 38.8009 22.4982 38.6076C23.3096 38.5145 23.7044 37.7832 24.265 37.3297C25.4076 36.4065 26.9548 36.2522 28.2068 37.0554C28.8494 37.4676 29.5139 38.4953 30.2723 38.6012C31.787 38.8123 31.9897 37.9552 32.991 37.2274C33.8681 36.5898 34.8186 36.3851 35.8806 36.6524C37.742 37.12 38.4609 39.9218 40.7531 38.0042C41.9811 36.9772 42.7134 36.1243 44.5522 36.6659C46.0641 37.1115 46.403 38.7682 48.1338 38.6105C49.4529 38.4896 50.0341 36.6168 51.9421 36.5429C53.0911 36.4989 53.0586 37.7199 52.2818 37.8805C51.3836 38.0668 51.3984 37.9324 50.6372 38.5707C49.508 39.5174 49.0504 40.1506 47.362 39.9502C45.4137 39.7185 44.4548 36.7412 42.3808 38.2921C41.0659 39.2757 40.8322 40.1627 38.8189 39.9488C36.7005 39.7242 35.8933 36.5493 33.587 38.4669C32.3986 39.4548 31.9946 40.1521 30.2031 39.9502C28.6058 39.7697 27.9378 38.098 26.8602 37.9132C25.1922 37.6282 24.8293 39.0326 23.5963 39.6403C22.7899 40.0383 21.7702 40.0796 20.9327 39.7569C19.3813 39.1584 18.5339 36.7654 16.498 38.3951C15.2545 39.3909 14.9537 40.1585 13.0449 39.9481C11.0063 39.7235 10.2493 36.7377 8.02415 38.324C6.75731 39.2267 6.57795 40.1087 4.63037 39.9602C2.80425 39.8209 2.37985 38.1933 1.14195 37.9274C0.699194 37.8322 -0.0161421 37.9481 0.00433646 37.2238C0.0283458 36.3766 0.918809 36.501 1.50492 36.6374C2.1447 36.7867 2.59381 37.1655 3.0853 37.5699H3.08318Z" fill="#ED1C25" fill-opacity="0.5"/>
<path d="M11.9118 31.9556C12.8637 32.7381 13.5437 33.2364 14.7477 32.3742C16.0936 31.4105 16.2659 30.51 18.3307 30.7189C20.5163 30.9393 21.1448 34.2136 23.6672 32.1063C24.7843 31.1731 25.1105 30.5661 26.8081 30.7154C28.5735 30.871 29.1392 32.618 30.4145 32.7708C31.9942 32.9599 32.3359 31.6116 33.5336 31.0224C34.2828 30.6535 35.3279 30.5988 36.1103 30.876C37.5671 31.392 38.5317 33.6991 40.3515 32.483C41.7306 31.5612 41.8606 30.5299 43.967 30.7154C45.7239 30.8703 46.3553 32.6123 47.5013 32.773C49.2343 33.0153 49.6601 31.2897 51.1458 30.839C51.667 30.6813 52.8032 30.5185 52.8321 31.3238C52.8611 32.129 52.162 31.9997 51.6783 32.085C50.9389 32.215 50.2243 33.2819 49.5287 33.6884C48.9356 34.036 48.1863 34.1888 47.5035 34.1205C45.2085 33.891 44.5362 30.6137 42.059 32.7097C40.8684 33.7176 40.2541 34.4404 38.4753 34.0388C36.8179 33.6642 36.4733 31.8135 34.578 32.0743C33.8485 32.1745 33.2186 33.1028 32.6233 33.5185C31.545 34.2719 30.2245 34.3323 29.0777 33.6884C28.3461 33.2776 27.6068 32.1624 26.8039 32.0679C24.6713 31.8163 24.4284 34.3494 21.7916 34.1276C19.9005 33.9684 19.3645 32.0011 17.7651 32.0366C16.5569 32.0637 16.0739 33.2158 15.1184 33.7389C13.8834 34.4148 12.4972 34.193 11.4118 33.3444C10.8624 32.9144 10.3829 32.166 9.63653 32.075C7.86973 31.8604 7.69178 33.2094 6.3755 33.8235C5.41301 34.2719 4.21749 34.23 3.3016 33.6891C2.66818 33.3146 2.15904 32.542 1.56234 32.2413C1.02566 31.9705 0.148616 32.1838 0.0200952 31.5171C-0.191046 30.4226 1.3173 30.6891 1.9366 30.9407C3.27124 31.4837 3.66669 33.004 5.33039 32.7723C6.4786 32.6123 7.12474 30.9059 8.73336 30.7246C10.3074 30.5476 10.8123 31.053 11.9097 31.9549L11.9118 31.9556Z" fill="#ED1C25" fill-opacity="0.5"/>
</svg>
