<svg width="40" height="37" viewBox="0 0 40 37" fill="none" xmlns="http://www.w3.org/2000/svg">
<path d="M39.3024 36.9996H2.37968V35.7713H3.45415V27.7108H0V24.1798H10.4394V27.7108H6.98521V35.7713H15.5825V33.3916H17.8853V23.1053C16.3278 23.2714 14.8257 22.3854 14.508 20.8025H6.37145V17.2715H32.9317V20.8025H24.7951C24.4775 22.3854 22.9754 23.2714 21.4179 23.1053V33.3916H23.7206V35.7713H32.3179V27.7108H28.8638V24.1798H39.3032V27.7108H35.7721V35.7713H39.3032V36.9996H39.3024ZM31.7026 18.4998H7.59974V19.5743H31.7034V18.4998H31.7026ZM23.4891 20.8025H15.8125C15.9163 21.3471 16.5685 21.8001 17.0854 21.8709C18.1814 22.0201 20.8403 21.967 21.9947 21.8809C22.6554 21.8316 23.3192 21.4786 23.4884 20.8033L23.4891 20.8025ZM20.1888 23.1053H19.1143V33.3916H20.1888V23.1053ZM9.21183 25.4081H1.2283V26.4825H9.21183V25.4081ZM38.0741 25.4081H30.0905V26.4825H38.0741V25.4081ZM5.75691 27.7116H4.68244V35.7721H5.75691V27.7116ZM34.6199 27.7116H33.4686V35.7721H34.6199V27.7116ZM22.4916 34.6199H16.8108V35.7713H22.4916V34.6199Z" fill="#ED1C25" fill-opacity="0.5"/>
<path d="M27.7888 0V12.7429H11.5156V4.60553H12.7439V11.5146H26.5613V1.2283H12.7439V3.53106H11.5156V0H27.7888Z" fill="#ED1C25" fill-opacity="0.5"/>
<path d="M25.4091 2.30298V10.4396H13.8945V2.30298H25.4091ZM17.3494 3.53127H15.0467V9.21204H17.3494V3.53127ZM20.8036 3.53127H18.5008V9.21204H20.8036V3.53127ZM24.2577 3.53127H22.0319V9.21204H24.2577V3.53127Z" fill="#ED1C25" fill-opacity="0.5"/>
<path d="M1.2283 35.7715H0V36.9998H1.2283V35.7715Z" fill="#ED1C25" fill-opacity="0.5"/>
</svg>
