<svg width="41" height="36" viewBox="0 0 41 36" fill="none" xmlns="http://www.w3.org/2000/svg">
<path d="M0 21.5833C0.05719 21.4862 0.459087 21.1141 0.509226 21.1141H15.6685V15.3277H13.9841C13.6504 15.3277 13.3433 14.9117 13.3127 14.5897C13.2093 13.5055 13.3966 12.252 13.3221 11.1481C13.3276 10.946 13.7554 10.5574 13.9058 10.5574H28.9867V4.77262H27.224C26.9365 4.77262 26.6607 4.31119 26.6317 4.03464C26.5628 3.38283 26.5409 1.20099 26.6411 0.593836C26.7038 0.213091 27.1809 0.0031337 27.5342 0H39.2135C39.5998 0 39.8771 0.194289 40.1113 0.472405V17.1264C39.8129 17.4437 39.4681 17.7117 39.1289 17.9835C31.8822 23.7926 24.5345 29.4795 17.2541 35.2463C12.4557 35.4774 7.59844 35.2768 2.77803 35.3481C2.54927 35.4178 1.88022 35.034 1.88022 34.8365V25.8836H0.744253C0.452819 25.8836 0.162952 25.5514 0 25.336V21.5826V21.5833ZM38.5445 1.64519H28.2033V3.13056H38.5445V1.64519ZM38.5445 4.77262H30.5536V14.82C30.5536 14.9548 30.0177 15.3285 29.8877 15.3285H17.2353V25.2976C17.2353 25.4919 16.6963 25.8843 16.4911 25.8843H3.44707V27.2914H6.93331C7.02184 27.2914 7.33834 27.593 7.38299 27.7027C7.61332 28.2675 7.24276 28.9334 6.61994 28.9334H3.44707V33.7029H16.6478L38.5445 16.3054V7.82171H35.0583C34.6094 7.82171 34.278 6.76017 34.8647 6.37786C34.936 6.33164 35.3191 6.17965 35.3716 6.17965H38.5445V4.77262ZM28.9867 12.2003H14.8851V13.6856H28.9867V12.2003ZM15.6685 22.7561H1.56685V24.2415H15.6685V22.7561Z" fill="#ED1C25" fill-opacity="0.5"/>
<path d="M33.6592 6.4415C34.3784 7.15911 33.3027 8.35149 32.5076 7.62995C31.6928 6.8904 32.9173 5.70194 33.6592 6.4415Z" fill="#ED1C25" fill-opacity="0.5"/>
<path d="M8.3304 28.672C7.61122 27.9544 8.68686 26.762 9.48204 27.4835C10.2772 28.2051 9.07231 29.4115 8.3304 28.672Z" fill="#ED1C25" fill-opacity="0.5"/>
</svg>
