<svg width="36" height="39" viewBox="0 0 36 39" fill="none" xmlns="http://www.w3.org/2000/svg">
<path d="M1.45243 13.0044L33.9976 12.9912C34.6694 13.0481 35.2687 13.4363 35.4113 14.1279C35.5465 14.7833 35.5366 17.7392 35.4402 18.4448C35.1649 20.4685 32.199 19.4299 30.876 19.8041L26.466 26.8296C26.1346 27.2871 25.6145 27.5493 25.044 27.5468L10.2412 27.5344C9.78121 27.4792 9.37565 27.2385 9.08714 26.8783L4.64331 19.8041C3.27332 19.4216 0.311592 20.5023 0.0717192 18.3706C-0.0189543 17.5686 -0.0354404 14.9547 0.0915025 14.1939C0.206081 13.5064 0.77073 13.0506 1.45243 13.0044ZM34.132 14.2977H1.38813V18.411H34.1312V14.2977H34.132ZM29.3601 19.7274H6.16004L10.073 26.0573C10.2065 26.2452 10.4118 26.3219 10.6401 26.3128L25.1693 26.2724L25.5304 25.9748L29.3609 19.7274H29.3601Z" fill="#ED1C25" fill-opacity="0.5"/>
<path d="M17.6621 0.000605356C19.694 -0.0241238 21.8924 0.710332 23.5105 1.92206C23.7595 2.10835 24.6176 2.81478 24.6679 3.06867C24.7899 3.6869 24.3357 4.07102 23.7652 3.80807C23.4578 3.66629 23.3127 3.3852 23.0629 3.19314C20.1284 0.932894 16.3135 0.569376 13.1597 2.66311C12.7294 2.94914 11.8532 3.88555 11.4534 3.90616C10.9448 3.93336 10.7033 3.38767 10.8921 2.94502C10.9267 2.86342 11.4369 2.38779 11.5507 2.28805C13.1424 0.89003 15.5445 0.0269831 17.6621 0.000605356Z" fill="#ED1C25" fill-opacity="0.5"/>
<path d="M12.4342 38.6242C11.6816 37.9829 13.1472 37.1989 13.3343 36.5692C13.7259 35.247 12.4837 34.7211 11.7929 33.8786C10.9455 32.8441 10.8004 31.7181 11.5209 30.56C11.8152 30.0877 12.8892 28.768 13.4036 29.6351C13.7836 30.2756 13.0508 30.6424 12.7425 31.0414C11.5753 32.5515 13.1011 33.1986 13.9344 34.2059C14.9706 35.4588 14.9797 36.7365 13.9344 37.9928C13.6072 38.3859 12.9593 39.0718 12.435 38.625L12.4342 38.6242Z" fill="#ED1C25" fill-opacity="0.5"/>
<path d="M22.5107 29.3684C22.9361 29.2868 23.3153 29.6099 23.2716 30.0443C23.2081 30.6691 21.7689 31.1456 22.1423 32.4134C22.4588 33.4882 24.0324 34.0265 24.3869 35.4353C24.6531 36.4945 24.0827 37.8274 23.2279 38.4819C22.6286 38.941 21.8793 38.791 22.0376 37.9527C22.1406 37.4078 23.42 37.027 23.1521 35.7642C22.8908 34.5359 20.8283 34.0636 20.797 32.1092C20.7838 31.2956 21.6774 29.5275 22.5099 29.3675L22.5107 29.3684Z" fill="#ED1C25" fill-opacity="0.5"/>
<path d="M17.5705 29.3678C17.9554 29.2829 18.2876 29.456 18.3808 29.8459C18.5011 30.3471 17.9381 30.6241 17.6768 30.9579C16.3991 32.5917 17.9637 33.1835 18.8687 34.2865C19.8274 35.4553 19.8068 36.7346 18.8687 37.9084C18.7781 38.0222 18.2175 38.6033 18.1318 38.652C17.6941 38.9034 17.0709 38.6322 17.0998 38.1195C17.1344 37.5103 18.5316 37.0075 18.2967 35.846C18.1302 35.0242 17.2688 34.5799 16.7676 34.0012C15.9342 33.0393 15.6424 31.957 16.2615 30.7757C16.4395 30.4353 17.216 29.4453 17.5696 29.367L17.5705 29.3678Z" fill="#ED1C25" fill-opacity="0.5"/>
<path d="M16.9212 3.95389C18.2838 3.80057 19.5441 4.01736 20.7171 4.71885C21.2397 5.03126 22.1984 5.59673 21.8951 6.29574C21.4804 7.25358 20.352 5.93799 19.845 5.67257C18.583 5.00982 17.0028 5.00158 15.7317 5.64372C15.3468 5.83825 14.6469 6.52902 14.3922 6.6098C13.6982 6.83154 13.2802 6.01053 13.8094 5.44918C14.4648 4.75511 15.9732 4.0594 16.9204 3.95307L16.9212 3.95389Z" fill="#ED1C25" fill-opacity="0.5"/>
<path d="M17.4927 7.24175C19.6046 6.89966 19.781 10.337 17.4795 10.0114C15.9784 9.79957 16.0312 7.47832 17.4927 7.24175Z" fill="#ED1C25" fill-opacity="0.5"/>
<path d="M11.2012 23.735C10.9556 23.4902 10.9498 21.7946 11.0314 21.4311C11.1394 20.948 11.8697 20.7683 12.1558 21.1764C12.4229 21.558 12.4245 23.3163 12.1311 23.6822C11.9044 23.965 11.4568 23.9889 11.2021 23.735H11.2012Z" fill="#ED1C25" fill-opacity="0.5"/>
<path d="M24.3196 23.7344C24.0649 23.9883 23.6173 23.9644 23.3906 23.6816C23.0972 23.3156 23.0988 21.5582 23.3659 21.1757C23.6511 20.7669 24.3823 20.9474 24.4902 21.4305C24.5718 21.794 24.5661 23.4896 24.3204 23.7344H24.3196Z" fill="#ED1C25" fill-opacity="0.5"/>
<path d="M15.5164 20.9764C15.8025 20.8906 16.1808 21.0291 16.3003 21.3102C16.3993 21.5418 16.4075 23.1665 16.3449 23.4517C16.208 24.0692 15.2114 24.0683 15.1241 23.3916C15.082 23.066 15.073 21.7125 15.1298 21.4149C15.157 21.2731 15.3812 21.0167 15.5156 20.9764H15.5164Z" fill="#ED1C25" fill-opacity="0.5"/>
<path d="M19.6298 20.9777C19.9067 20.9159 20.2397 21.0263 20.3502 21.2917C20.4203 21.4607 20.4351 23.3327 20.3758 23.5355C20.2233 24.0573 19.2456 24.0795 19.1566 23.3072C19.1162 22.9601 19.1063 21.7418 19.1764 21.431C19.2234 21.2225 19.4196 21.0247 19.6298 20.9777Z" fill="#ED1C25" fill-opacity="0.5"/>
</svg>
