<svg width="40" height="40" viewBox="0 0 40 40" fill="none" xmlns="http://www.w3.org/2000/svg">
<path d="M40.004 8.35963V35.7037C39.6 37.0243 38.6403 37.9206 37.229 38.0466C33.647 38.3652 29.611 37.8118 25.9812 38.0466C24.5268 37.9174 23.3902 36.8889 23.2031 35.4337V8.70797C23.4935 5.31774 26.2599 2.64689 29.6485 2.4191C33.7942 2.14043 37.8004 2.48173 39.5726 6.79876L40.004 8.35963ZM24.3789 9.84378V14.6094L25.0841 13.6348C28.4947 9.56668 34.71 9.53615 38.1261 13.6348L38.8313 14.6094V9.84378C35.6501 9.40386 33.2219 6.84338 32.8047 3.68251L30.6192 3.71695C30.2278 6.91461 27.6172 9.58546 24.3781 9.84378H24.3789ZM29.3793 3.7514C26.8697 3.933 24.7476 6.1154 24.4579 8.59368C26.9746 8.29622 28.9464 6.20385 29.3793 3.7514ZM38.7539 8.59446C38.4321 6.15688 36.5081 4.13418 34.0673 3.7514C34.5448 6.18741 36.3257 8.06452 38.7539 8.59446ZM30.926 11.8203C28.8689 12.0043 26.9104 13.1643 25.7448 14.845L27.3879 17.2653C27.5546 17.4313 27.7871 17.2685 28.0086 17.2622C30.5934 17.1863 33.2008 17.2935 35.7848 17.3076L37.467 14.9217C36.1284 12.7471 33.4482 11.5956 30.926 11.8211V11.8203ZM25.0051 16.0943C24.6067 17.0689 24.4282 18.1256 24.3757 19.1769C24.1918 22.8528 24.4258 26.7957 24.4947 30.4701L24.7303 30.8583C24.9119 30.438 26.436 28.6564 26.4571 28.3988C26.465 28.3072 26.3366 28.0552 26.328 27.8548C26.2145 25.1526 26.1487 21.5362 26.328 18.8638C26.3444 18.6156 26.5033 18.3362 26.4869 18.1679C26.4595 17.8908 25.2431 16.4246 25.0043 16.0935L25.0051 16.0943ZM38.2067 16.0943C37.9679 16.4254 36.7507 17.8916 36.7241 18.1687C36.7077 18.337 36.8666 18.6164 36.883 18.8645C37.0623 21.537 36.9965 25.1534 36.883 27.8556C36.8744 28.0552 36.7468 28.308 36.7538 28.3996C36.7758 28.6571 38.2998 30.4387 38.4807 30.8591L38.7163 30.4708C38.7859 26.7965 39.02 22.8536 38.8353 19.1777C38.7828 18.1264 38.6051 17.0696 38.2059 16.0951L38.2067 16.0943ZM27.9507 18.5326C27.6024 18.6125 27.528 19.0266 27.5006 19.3327C27.2759 21.8986 27.6775 24.7855 27.5006 27.3859C27.5389 27.8188 27.6564 28.2344 28.1644 28.2063C30.382 28.0481 32.8611 28.4043 35.0466 28.2063C35.4262 28.1718 35.5538 28.1006 35.6533 27.7194C35.5734 25.0407 35.9429 21.9816 35.7104 19.3327C35.6861 19.0579 35.6118 18.6446 35.3214 18.5499L27.9507 18.5319V18.5326ZM37.4263 31.6411C37.4247 31.454 37.2752 31.2975 37.1773 31.1472C37.0255 30.9147 35.928 29.335 35.8161 29.3131C35.7174 29.2935 35.3284 29.4454 35.1241 29.4564C32.9926 29.5644 30.3006 29.5542 28.1652 29.4564C27.9491 29.4462 27.4771 29.2967 27.3957 29.3131C27.2838 29.335 26.1855 30.9147 26.0344 31.1472C25.9366 31.2967 25.7871 31.454 25.7855 31.6411H37.4263ZM38.8321 32.344C38.5785 32.4121 38.382 32.5992 38.1268 32.6939C37.8591 32.7934 37.5186 32.8497 37.2329 32.8936C33.5906 32.6869 29.6634 33.1589 26.0548 32.8936C25.7652 32.8724 25.4137 32.8082 25.1421 32.7127C24.8704 32.6172 24.6513 32.4294 24.3789 32.3433V35.1166C24.3789 35.1683 24.5174 35.6341 24.5526 35.7241C24.7843 36.3268 25.29 36.6634 25.9092 36.7895C29.5366 36.5898 33.4889 37.0775 37.0779 36.7996C37.6822 36.7527 38.2677 36.4943 38.5629 35.9409C38.6364 35.8032 38.8321 35.2372 38.8321 35.1166V32.3433V32.344Z" fill="#ED1C25" fill-opacity="0.5"/>
<path d="M20.6289 38.8281H19.457V39.9999H20.6289V38.8281Z" fill="#ED1C25" fill-opacity="0.5"/>
<path d="M15.9922 37.1598C15.5022 37.6686 14.7296 37.9825 14.0259 38.0452C10.4439 38.3637 6.40785 37.8103 2.77809 38.0452C1.32447 37.916 0.187867 36.889 0 35.4322L0.0140901 8.48656C0.342075 5.84232 2.2458 3.49555 4.80784 2.73312C6.33661 2.27754 10.0149 2.25327 11.5679 2.61648C14.3938 3.27715 16.5096 5.74526 16.8047 8.62981V35.433C16.7499 36.0358 16.411 36.7262 15.993 37.1598H15.9922ZM1.17574 9.84312V14.6087L1.88102 13.6341C5.2916 9.56601 11.5069 9.53548 14.9229 13.6341L15.6282 14.6087V9.84312C12.447 9.40319 10.0188 6.84272 9.60159 3.68185L7.41607 3.71629C7.02468 6.91395 4.4141 9.5848 1.17495 9.84312H1.17574ZM6.17614 3.75073C3.66655 3.93234 1.54443 6.11473 1.2548 8.59302C3.77144 8.29556 5.74326 6.20319 6.17614 3.75073ZM15.5499 8.5938C15.2282 6.15622 13.3041 4.13351 10.8634 3.75073C11.3409 6.18675 13.1218 8.06386 15.5499 8.5938ZM7.72292 11.8196C5.66577 12.0036 3.70725 13.1637 2.54169 14.8443L4.18475 17.2647C4.35148 17.4306 4.58397 17.2678 4.80549 17.2615C7.39024 17.1856 9.99768 17.2928 12.5816 17.3069L14.2638 14.921C12.9253 12.7465 10.245 11.595 7.72292 11.8204V11.8196ZM1.80196 16.0936C1.40353 17.0682 1.22505 18.1249 1.17261 19.1762C0.988652 22.8522 1.2227 26.795 1.29159 30.4694L1.52721 30.8577C1.70881 30.4373 3.23289 28.6557 3.25402 28.3982C3.26185 28.3066 3.13347 28.0545 3.12486 27.8541C3.01136 25.152 2.9456 21.5355 3.12486 18.8631C3.1413 18.615 3.3002 18.3355 3.28377 18.1672C3.25637 17.8901 2.03993 16.424 1.80118 16.0928L1.80196 16.0936ZM15.0036 16.0936C14.7648 16.4247 13.5476 17.8909 13.521 18.168C13.5045 18.3363 13.6634 18.6157 13.6799 18.8639C13.8591 21.5363 13.7934 25.1528 13.6799 27.8549C13.6713 28.0545 13.5437 28.3074 13.5507 28.3989C13.5726 28.6565 15.0967 30.4381 15.2775 30.8584L15.5132 30.4702C15.5828 26.7958 15.8169 22.8529 15.6321 19.177C15.5797 18.1257 15.402 17.069 15.0028 16.0944L15.0036 16.0936ZM4.74757 18.532C4.39923 18.6118 4.32486 19.0259 4.29747 19.332C4.07281 21.8979 4.47438 24.7848 4.29747 27.3852C4.33582 27.8181 4.45324 28.2338 4.96127 28.2056C7.17888 28.0475 9.65795 28.4036 11.8435 28.2056C12.2231 28.1712 12.3507 28.0999 12.4501 27.7187C12.3703 25.04 12.7398 21.9809 12.5073 19.332C12.483 19.0572 12.4086 18.6439 12.1182 18.5492L4.74757 18.5312V18.532ZM14.2231 31.6404C14.2216 31.4534 14.0721 31.2968 13.9742 31.1465C13.8223 30.914 12.7249 29.3344 12.6129 29.3124C12.5143 29.2929 12.1253 29.4447 11.921 29.4557C9.78946 29.5637 7.09748 29.5535 4.96205 29.4557C4.746 29.4455 4.27398 29.296 4.19257 29.3124C4.08064 29.3344 2.9824 30.914 2.83132 31.1465C2.73347 31.296 2.58396 31.4534 2.58239 31.6404H14.2231ZM15.629 32.3434C15.3754 32.4115 15.1789 32.5986 14.9237 32.6933C14.656 32.7927 14.3155 32.8491 14.0298 32.8929C10.3875 32.6862 6.46029 33.1583 2.85167 32.8929C2.56204 32.8718 2.21057 32.8076 1.93895 32.7121C1.66732 32.6166 1.44814 32.4287 1.17574 32.3426V35.116C1.17574 35.1676 1.31429 35.6334 1.34951 35.7234C1.58122 36.3262 2.08689 36.6628 2.70607 36.7888C6.33348 36.5892 10.2857 37.0769 13.8748 36.799C14.4791 36.752 15.0646 36.4937 15.3597 35.9403C15.4333 35.8025 15.629 35.2365 15.629 35.116V32.3426V32.3434Z" fill="#ED1C25" fill-opacity="0.5"/>
<path d="M20.6289 2.34277H19.457V37.6556H20.6289V2.34277Z" fill="#ED1C25" fill-opacity="0.5"/>
<path d="M20.6289 0H19.457V1.17182H20.6289V0Z" fill="#ED1C25" fill-opacity="0.5"/>
<path d="M26.879 34.4531H25.6289V35.7032H26.879V34.4531Z" fill="#ED1C25" fill-opacity="0.5"/>
<path d="M37.8946 34.4531H36.6445V35.7032H37.8946V34.4531Z" fill="#ED1C25" fill-opacity="0.5"/>
<path d="M3.51963 34.4531H2.26953V35.7032H3.51963V34.4531Z" fill="#ED1C25" fill-opacity="0.5"/>
<path d="M14.5353 34.4531H13.2852V35.7032H14.5353V34.4531Z" fill="#ED1C25" fill-opacity="0.5"/>
</svg>
