<svg width="41" height="41" viewBox="0 0 41 41" fill="none" xmlns="http://www.w3.org/2000/svg">
<path d="M40.1957 0.477794V40.1239H0.000785824V25.1584C0.270845 24.7306 0.723038 24.5249 1.20742 24.7769C1.30005 24.8248 1.5709 25.1239 1.5709 25.1977V33.8553H6.28124V6.78415C6.28124 6.61065 6.79231 6.18437 7.02312 6.27151H30.0324C30.2632 6.18437 30.7742 6.61144 30.7742 6.78415V33.8553H38.6248V1.57373H1.57011V18.6935C1.57011 18.7508 1.29378 19.0789 1.2192 19.126C0.735601 19.4322 0.273985 19.1606 0 18.7327V0.476222C0.20019 0.228144 0.378398 -0.0246424 0.74188 0.00204952H39.453C39.8165 -0.0254275 39.9947 0.228144 40.1949 0.476222L40.1957 0.477794ZM17.7431 7.8432H7.85136V38.5578H17.7431V7.8432ZM29.2049 7.8432H19.3132V38.5578H29.2049V7.8432ZM6.28124 35.423H1.5709V38.557H6.28124V35.423ZM38.6256 35.423H30.775V38.557H38.6256V35.423Z" fill="#ED1C25" fill-opacity="0.5"/>
<path d="M0 21.6336C0.447482 20.8658 1.58739 21.0212 1.57718 21.9869C1.56776 22.9038 0.485165 23.0428 0 22.3386V21.6336Z" fill="#ED1C25" fill-opacity="0.5"/>
<path d="M13.5603 3.15892L23.3586 3.14087C24.1452 3.23351 24.2841 4.27684 23.6113 4.65053C20.2434 4.74945 16.8143 4.74945 13.4464 4.65053C12.8302 4.30982 12.8812 3.39758 13.5603 3.15971V3.15892Z" fill="#ED1C25" fill-opacity="0.5"/>
<path d="M36.3996 17.1165C38.6213 19.3327 35.2228 22.7258 33.0011 20.5088C30.7794 18.2925 34.1779 14.8995 36.3996 17.1165ZM34.6725 18.0523C33.6715 18.1026 33.7767 19.6209 34.7267 19.5738C35.7276 19.5235 35.6224 18.0052 34.6725 18.0523Z" fill="#ED1C25" fill-opacity="0.5"/>
<path d="M36.3996 23.3851C38.6213 25.6013 35.2228 28.9943 33.0011 26.7773C30.7794 24.5611 34.1779 21.1681 36.3996 23.3851ZM34.6725 24.3201C33.6715 24.3703 33.7767 25.8886 34.7267 25.8415C35.7276 25.7913 35.6224 24.273 34.6725 24.3201Z" fill="#ED1C25" fill-opacity="0.5"/>
</svg>
