<svg width="41" height="40" viewBox="0 0 41 40" fill="none" xmlns="http://www.w3.org/2000/svg">
<path d="M35.3755 39.9992C35.3543 39.8941 35.0625 39.6792 35.0625 39.647V36.8679H30.0133C29.1693 36.8679 27.5472 35.2457 27.5472 34.4017V33.1098C26.7055 33.1961 25.783 33.0612 25.6685 32.0532C25.6105 31.5426 25.6105 30.293 25.6685 29.7824C25.7775 28.8254 26.6373 28.6317 27.4687 28.725C27.3864 28.4544 27.1957 28.2387 27.0953 27.9641C26.8247 27.2244 26.8381 26.3177 27.1557 25.5945C25.3885 25.7113 24.0213 24.4131 23.7859 22.6992L9.964 26.2118C7.56844 26.4706 5.68038 22.8208 4.88578 20.9728C3.67153 18.1497 2.97341 15.0152 2.81418 11.9412C1.63679 11.5246 0.813167 10.7661 0.378608 9.58716C0.163682 9.00514 -0.343826 7.61988 0.360567 7.292L11.9689 4.29794C11.834 3.71042 11.1257 2.18476 11.7713 1.79177L16.7922 0.470841C17.9178 0.327296 17.7476 2.00592 18.0755 2.73463C21.2782 2.01454 24.4856 0.935992 27.6876 0.251993C32.5893 -0.795968 37.2996 1.46546 38.9986 6.27542C39.1916 6.82293 39.7046 8.529 39.6889 9.0373C39.6623 9.91426 38.0581 9.84209 37.4118 10.0947C37.873 12.0133 38.6598 13.8018 38.2346 15.8098C37.7758 17.9756 35.7912 19.8487 33.5753 20.1146C33.5996 20.5868 33.8216 21.0881 33.8169 21.5626C33.8059 22.6584 33.0427 23.937 32.0096 24.3433C32.9407 25.1787 33.3627 26.2251 33.165 27.4943C33.0976 27.9281 32.7909 28.3289 32.6364 28.7258C33.1721 28.7179 33.7204 28.6528 34.1228 29.0796C34.1942 29.1556 34.4366 29.5565 34.4366 29.6271V31.8579H35.7285C36.0101 31.8579 36.3466 31.4037 36.3152 31.1143L36.3317 22.2058C36.4533 22.0082 36.5819 21.8646 36.8204 21.8332C37.2384 21.7776 39.263 21.7658 39.6411 21.8387C39.8411 21.878 39.9038 22.0701 40.0733 22.1501V40H35.3763L35.3755 39.9992ZM38.2731 8.52665C38.0425 7.94776 37.9609 7.32024 37.7609 6.73037C36.4713 2.93779 32.354 0.564185 28.4061 1.44036L1.39833 8.37212C1.65797 9.76679 2.58513 10.8751 4.10217 10.8006C8.46736 9.94014 12.809 8.37369 17.1476 7.48418C18.7046 7.16493 20.1612 7.45202 21.2029 8.7251C22.1944 9.93544 21.9253 11.8313 24.0707 12.0423C25.4418 12.1765 27.886 10.9842 29.3434 10.832C30.1286 10.774 30.3647 11.7623 29.6603 12.091C28.8351 12.4761 26.1086 13.0872 25.1218 13.2668C23.5553 13.5515 22.1144 13.0307 21.1864 11.716C20.6978 11.0234 20.697 10.2045 20.1487 9.54402C19.2521 8.4639 17.9186 8.52665 16.7012 8.99572C17.1876 10.2312 17.6919 11.454 18.0504 12.7373C18.8081 15.4474 19.3094 18.6674 18.8309 21.4583C18.765 21.8419 18.6324 22.1603 18.5501 22.5094C18.5203 22.6357 18.5414 22.6263 18.6599 22.6192L34.3315 18.5615C35.3802 18.1348 36.2932 17.2233 36.7192 16.1738C37.5044 14.2387 36.5741 12.3859 36.1505 10.4892C36.0116 10.3904 35.0908 10.8955 34.8609 10.1747C34.7409 9.79974 34.8994 9.4593 35.2516 9.30478C35.672 9.12044 38.1664 8.65765 38.2707 8.52587L38.2731 8.52665ZM16.502 1.95728L12.9071 2.81385L13.2216 3.98732L16.6667 3.08839C16.873 2.94014 16.5287 2.19182 16.502 1.95728ZM11.8897 24.341L16.5914 23.133C17.3491 22.7471 17.6339 21.092 17.6857 20.3131C17.8527 17.8187 17.3782 15.096 16.6659 12.7146C16.5365 12.2816 15.5537 9.37381 15.2987 9.33302L10.0103 10.6414C11.7336 14.874 13.1055 19.793 11.8897 24.341ZM4.14374 12.1325C4.3469 15.1313 5.05757 18.2211 6.31732 20.95C7.06328 22.5643 9.89811 27.4551 10.8355 23.1699C11.4685 20.277 10.5994 16.0436 9.62043 13.2621C9.51611 12.9648 8.81015 11.0862 8.63287 11.0446C8.46344 11.112 7.5151 11.2587 7.50647 11.3842C8.31284 12.9169 8.89486 14.6489 9.28079 16.3409C9.65103 17.963 10.004 20.1366 9.8432 21.7862C9.78124 22.4239 9.38668 23.2562 8.67366 22.6624C8.30735 22.3572 7.56059 20.8222 7.3339 20.3225C6.15024 17.7175 5.47408 14.7493 5.31171 11.8933L4.14217 12.1318L4.14374 12.1325ZM8.44383 19.4879C8.30342 17.6571 7.84219 15.86 7.27193 14.1241L6.72364 12.8346C6.86954 14.8097 7.39822 16.7331 8.05241 18.5897L8.44462 19.4887L8.44383 19.4879ZM25.0418 22.307C25.2904 23.6805 25.9501 24.421 27.4217 24.2555C28.0107 24.1896 31.1531 23.3675 31.5955 23.1055C32.0379 22.8436 32.4222 22.2286 32.4716 21.7101C32.4928 21.4889 32.394 20.5076 32.1445 20.5194L25.0418 22.3078V22.307ZM38.8206 23.0891H37.5679V31.7395C37.5679 32.1379 36.596 33.1098 36.1975 33.1098H28.7991C28.7598 33.9876 28.9614 34.9979 29.8423 35.394C29.989 35.4599 30.5114 35.6152 30.6385 35.6152H38.8198V23.0891H38.8206ZM30.0259 24.9983C27.6327 25.032 27.6091 28.6513 30.0125 28.6811C32.5407 28.7125 32.4685 24.9638 30.0259 24.9983ZM33.1839 29.9785H26.9212V31.8571H33.1839V29.9785ZM38.8206 36.8679H36.3152V38.7465H38.8206V36.8679Z" fill="#ED1C25" fill-opacity="0.5"/>
<path d="M33.0102 9.87764C33.9601 9.77645 34.1099 10.8778 33.3601 11.1695C33.062 11.2856 31.9599 11.5523 31.6932 11.4684C31.2579 11.3311 31.1543 10.6009 31.4987 10.3263C31.6242 10.2267 32.8055 9.8996 33.0102 9.87764Z" fill="#ED1C25" fill-opacity="0.5"/>
<path d="M29.7918 26.2369C30.9801 25.8832 30.9801 27.8104 29.7918 27.4567C29.2882 27.3069 29.2882 26.3875 29.7918 26.2369Z" fill="#ED1C25" fill-opacity="0.5"/>
</svg>
