<svg width="40" height="40" viewBox="0 0 40 40" fill="none" xmlns="http://www.w3.org/2000/svg">
<path d="M8.16147 0H39.7208V3.10146C39.4605 3.74786 38.3254 3.50779 38.3254 2.90723V1.39535H19.0951V16.5935H31.1529C31.198 16.5935 31.5654 16.7714 31.6167 16.8281C32.0246 17.2826 31.6338 18.0673 31.076 18.0673H19.0959V22.5261C19.0959 23.0023 18.451 23.3123 18.0167 23.0621C17.9592 23.0287 17.7005 22.7809 17.7005 22.7591V1.3969H9.17069V30.5524H17.7005V27.0244C17.7005 27.0027 17.96 26.7509 18.0167 26.7206C18.444 26.4891 19.0966 26.7875 19.0966 27.2575V30.5532H38.327V18.0689H35.7297C35.1377 18.0689 34.7205 17.3277 35.1455 16.8646C35.2131 16.7916 35.586 16.5958 35.6521 16.5958H38.327V4.92567C38.327 4.90314 38.5173 4.58539 38.564 4.54188C38.9664 4.1674 39.3945 4.40747 39.7231 4.73144V31.5609C39.4823 31.954 39.1086 31.9975 38.6797 32.0294H8.7426C7.90586 31.9571 7.75514 31.7155 7.69531 30.9052V1.04496C7.72717 0.616104 7.77068 0.242401 8.1638 0.00155536L8.16147 0Z" fill="#ED1C25" fill-opacity="0.5"/>
<path d="M39.7202 37.0645C39.5843 37.254 39.453 37.3651 39.265 37.5011C38.185 38.2788 36.8697 38.8941 35.7696 39.6656C35.4378 39.8489 34.7573 39.5622 34.7573 39.1971V37.5298H12.7354V39.1971C12.7354 39.2157 12.5839 39.4915 12.556 39.5218C12.3439 39.7526 11.9539 39.7417 11.6711 39.6407C11.2173 39.4776 8.52608 37.7637 8.09023 37.4063C7.62097 37.0217 7.62097 36.5641 8.09023 36.1795C8.52608 35.8221 11.2173 34.1083 11.6711 33.9451C11.9531 33.8441 12.3431 33.8325 12.556 34.064C12.5839 34.0943 12.7354 34.3701 12.7354 34.3887V36.056H34.7573V34.3887C34.7573 34.0236 35.4378 33.7369 35.7696 33.9203C36.8736 34.6902 38.1781 35.3086 39.265 36.0847C39.4538 36.2199 39.5843 36.3318 39.7202 36.5214V37.0645ZM11.3409 37.7621V35.8237L9.78935 36.7933L11.3409 37.7629V37.7621ZM36.1534 35.8237V37.7621L37.7049 36.7925L36.1534 35.8229V35.8237Z" fill="#ED1C25" fill-opacity="0.5"/>
<path d="M3.20039 0C3.38996 0.135961 3.50106 0.26726 3.63702 0.455275C4.41472 1.53519 5.03004 2.85053 5.80152 3.95065C5.98488 4.28162 5.6982 4.96298 5.33305 4.96298H3.66577V7.7933C3.66577 8.31539 2.89506 8.69764 2.46154 8.29985C2.38851 8.23226 2.19273 7.85934 2.19273 7.7933V4.96298H0.525454C0.160301 4.96298 -0.12638 4.2824 0.0569732 3.95065C0.826902 2.84665 1.44533 1.54219 2.22147 0.455275C2.35666 0.266483 2.46854 0.135961 2.6581 0H3.20117H3.20039ZM3.89807 3.56684L2.92847 2.01534L1.95887 3.56684H3.8973H3.89807Z" fill="#ED1C25" fill-opacity="0.5"/>
<path d="M3.66502 26.9842H5.3323C5.35094 26.9842 5.62675 27.1357 5.65705 27.1636C5.88779 27.3757 5.87692 27.7657 5.77592 28.0485C5.61276 28.5023 3.89887 31.1935 3.54149 31.6294C3.15691 32.0986 2.69931 32.0986 2.31473 31.6294C1.95735 31.1935 0.243461 28.5023 0.0803074 28.0485C-0.0206924 27.7657 -0.0323487 27.3765 0.199174 27.1636C0.229474 27.1357 0.505285 26.9842 0.523931 26.9842H2.1912V9.57645C2.1912 8.66202 3.66424 8.66202 3.66424 9.57645V26.9842H3.66502ZM3.89732 28.3803H1.9589L2.9285 29.9318L3.8981 28.3803H3.89732Z" fill="#ED1C25" fill-opacity="0.5"/>
</svg>
