<svg width="37" height="37" viewBox="0 0 37 37" fill="none" xmlns="http://www.w3.org/2000/svg">
<g clip-path="url(#clip0_2974_1335)">
<path d="M37.0005 24.9927C36.4251 25.4631 36.027 26.9485 35.0803 26.5337C34.5729 26.311 33.9591 25.5877 33.4604 25.2851V35.8167H35.2301C35.4053 35.8167 35.5884 36.197 35.5927 36.3641C35.605 36.8368 35.1917 36.9555 34.8002 36.9899C23.4625 36.9298 12.1054 37.0954 0.780041 36.9064C-0.15511 36.6521 -0.00962624 34.6978 0.19521 33.9884C0.228504 33.8741 0.347208 33.7964 0.372541 33.6565C0.499206 32.9779 0.348655 32.6518 0.843012 32.0121C1.06956 31.7182 1.71374 31.3826 1.78106 31.28C1.86357 31.1547 1.97287 30.7246 2.09664 30.5025C2.41656 29.9266 2.93045 29.3821 3.55365 29.1615V11.3892C3.01948 11.6376 2.10677 12.7544 1.527 12.6738C1.13543 12.6195 0.866897 12.185 0.635281 11.8941C0.248047 11.4082 -0.322308 10.7692 0.227781 10.1808C1.0891 9.2597 2.71114 8.42725 3.6586 7.51127C3.73749 7.43506 3.8685 7.35005 3.8989 7.24306L3.917 3.02879C3.3575 2.79357 3.17944 2.52903 3.12081 1.91788C3.05422 1.22247 3.06942 0.143802 3.94595 0.0492721C5.41309 -0.107545 7.15166 0.178976 8.64921 0.0507376C9.62562 0.13794 9.57423 2.13772 9.18844 2.65067C9.04006 2.84779 8.75633 2.91814 8.7158 2.97677C8.62967 3.10281 8.70422 3.40471 8.68323 3.56446L11.9295 1.03707C12.3746 0.794519 12.9363 0.771802 13.3735 1.04587L25.0817 10.1823C25.2851 10.4505 25.3748 10.7502 25.2424 11.0785C25.1989 11.1869 24.4404 12.215 24.3231 12.3418C23.443 13.2974 22.5513 11.7724 21.7573 11.3899V12.5235C21.7573 12.7558 21.328 12.9632 21.0877 12.9134C20.2416 12.7368 20.7881 10.9774 20.534 10.3977L12.6178 4.24009C9.98969 6.3813 7.23997 8.37742 4.65165 10.5648L4.63645 28.7973C5.99213 28.6581 7.24576 29.3096 7.92975 30.4813C8.25619 30.2505 8.96551 30.534 9.20798 30.4688C9.27168 30.452 9.82032 29.9214 10.0049 29.8071C12.5766 28.2096 15.7685 30.4395 15.1837 33.4044C15.6245 33.3985 16.0472 33.3384 16.3794 33.6938C16.4265 33.7437 16.6284 34.0741 16.6284 34.0998V35.8182H20.6737V27.0782C20.6737 26.8151 21.2043 26.2846 21.5025 26.308C23.299 26.4722 25.4609 26.0948 27.2133 26.308C27.6526 26.3615 27.9733 26.7257 28.0442 27.1486C27.8878 28.7372 28.249 30.7253 28.0377 32.2649C27.9747 32.7243 27.5122 32.9522 27.1373 32.6731C27.0779 32.6291 26.8861 32.3873 26.8861 32.3426V27.479H21.8296V35.8167H26.8861V34.6831C26.8861 34.4589 27.2639 34.1965 27.4941 34.2082C27.6982 34.2185 28.042 34.483 28.042 34.6831V35.8167H32.3761V24.4438C29.6879 22.3752 27.0685 20.2068 24.3347 18.2027L13.6927 26.5176C13.4191 26.6818 13.0376 26.6107 12.8053 26.4128C12.7003 26.3234 11.8144 25.1554 11.771 25.0469C11.5936 24.6021 11.7616 24.2394 12.1155 23.9712L20.5854 17.3717C20.7229 16.6938 20.4081 15.1718 20.715 14.6135C20.9727 14.1437 21.7573 14.365 21.7573 14.7175V16.4359C22.7286 15.8138 23.671 14.3856 24.9651 14.9073C28.6877 17.8421 32.5252 20.6494 36.1978 23.6473C36.4837 23.881 36.7797 24.1038 36.9998 24.4079V24.9927H37.0005ZM8.24895 1.15065H4.276V1.88198H8.24895V1.15065ZM1.61096 11.31L12.6258 2.90642L23.4929 11.2837C23.6884 11.387 23.8722 10.9664 23.9851 10.8396L12.625 2.02854C12.4455 2.04099 11.9787 2.44842 11.797 2.58399C8.29455 5.20591 4.9542 8.06306 1.4568 10.6938C1.19188 10.7297 1.5574 11.2697 1.61169 11.31H1.61096ZM7.52659 2.97896H5.07074V6.3432L7.52659 4.47825V2.97896ZM24.334 15.9383L13.0506 24.6981C12.9631 24.8337 13.3344 25.1671 13.4147 25.2836L24.3239 16.869L24.6278 16.932L35.3032 25.2843C35.3821 25.1693 35.7548 24.8344 35.6673 24.6988L24.334 15.9391V15.9383ZM9.83841 33.4036C10.0679 32.322 9.34116 31.439 8.21855 31.5812C7.91889 31.6193 7.7459 31.8135 7.37749 31.6889C7.15239 31.6127 6.87155 30.8821 6.62474 30.6227C5.58029 29.5228 3.6434 29.813 3.01152 31.2097C2.83708 31.5959 2.88703 32.0465 2.49545 32.2957C2.02208 32.5961 1.52773 32.6093 1.53062 33.4029H6.40687C6.62691 33.4029 6.83319 33.8543 6.79266 34.0807C6.75213 34.3072 6.40253 34.5732 6.18973 34.5732H1.24183V35.8167H15.4732V34.5732H8.86345C8.65066 34.5732 8.30178 34.3123 8.26053 34.0807C8.21927 33.8492 8.42628 33.4029 8.64631 33.4029H9.83841V33.4036ZM14.0285 33.4036C14.6531 31.1283 11.9548 29.4319 10.277 31.11C10.817 31.7615 11.1499 32.5448 10.9943 33.4036H14.0285Z" fill="#ED1C25" fill-opacity="0.5"/>
<path d="M9.89476 8.19015C11.6087 8.26856 13.5304 8.01795 15.2205 8.17256C15.9074 8.23558 16.2809 8.49939 16.3446 9.22851C16.5943 12.0923 16.152 15.3246 16.3417 18.2272C16.3004 18.7101 15.9219 19.1263 15.442 19.1446C13.6665 18.979 11.5334 19.3535 9.80211 19.1424C9.27446 19.0787 9.01679 18.6588 8.97046 18.1561C8.70411 15.285 9.17675 11.9977 8.97191 9.08269C9.04502 8.59099 9.41126 8.24291 9.89548 8.18942L9.89476 8.19015ZM12.0792 9.34136H10.1285V11.5353H12.0792V9.34136ZM15.1857 9.34136H13.2351V11.5353H15.1857V9.34136ZM12.0792 12.7056H10.1285V14.6805H12.0792V12.7056ZM15.1857 12.7056H13.2351V14.6805H15.1857V12.7056ZM12.0792 15.85H10.1285V17.9707H12.0792V15.85ZM15.1857 15.85H13.2351V17.9707H15.1857V15.85Z" fill="#ED1C25" fill-opacity="0.5"/>
<path d="M22.4587 30.1271C22.7547 30.0377 23.1405 30.1952 23.2006 30.5155C23.2433 30.7434 23.236 31.9554 23.1868 32.1804C23.0681 32.7234 22.2155 32.7219 22.1228 32.1188C22.0808 31.8469 22.0845 30.5499 22.1872 30.3645C22.2191 30.3066 22.3935 30.1469 22.4587 30.1278V30.1271Z" fill="#ED1C25" fill-opacity="0.5"/>
</g>
<defs>
<clipPath id="clip0_2974_1335">
<rect width="37" height="37" fill="white"/>
</clipPath>
</defs>
</svg>
