<svg width="38" height="37" viewBox="0 0 38 37" fill="none" xmlns="http://www.w3.org/2000/svg">
<path d="M17.941 37C17.5135 36.8348 17.3229 36.6137 17.4729 36.1332L20.6174 32.9503L4.37583 32.9532C2.1082 32.9807 0.173207 31.3755 0 29.0832L0.0123202 5.29155C0.104359 3.39352 2.42127 1.32663 4.30191 1.56216C4.45845 1.58173 4.84979 1.80639 4.84979 1.95568V7.48888H21.6668L28.6451 0.508427C29.1575 0.0489576 29.8329 -0.135845 30.4946 0.10766C30.954 0.276518 32.8955 2.19049 33.0956 2.64199C33.371 3.26379 33.2673 3.96387 32.8397 4.48566L29.8757 7.48888H34.1073C34.1921 7.48888 34.5051 7.80123 34.5051 7.88675V19.0619C35.2559 18.6611 36.1568 16.6659 37.0366 17.6153V37H17.941ZM29.851 1.14545C29.5097 1.16429 28.74 2.08178 28.5074 2.37964L30.9156 4.73496C31.2874 4.22187 32.4665 3.7037 31.9396 3.0029C31.7186 2.70939 30.5301 1.50998 30.2416 1.30199C30.1242 1.2172 30.0047 1.13675 29.8517 1.14545H29.851ZM3.69242 2.78766C2.64376 2.94854 1.67119 3.79428 1.32188 4.79294C1.23854 5.0321 1.08852 5.63434 1.08852 5.8619V26.0061C1.84585 25.3459 2.6684 24.8429 3.68518 24.6972C3.79678 24.5675 3.62068 21.7694 3.69677 21.273C3.812 20.5236 4.74616 20.5642 4.84544 21.2005L4.81718 25.4314C4.67514 25.885 3.76779 25.8111 3.31557 25.9546C-0.0666736 27.0272 0.761675 31.8618 4.30408 31.7958C10.1598 31.7436 16.0568 31.885 21.8871 31.7241L24.0924 29.5173C24.6628 29.1441 25.2056 29.805 24.8454 30.342L19.3876 35.8426H35.9509V33.3112H34.9023C34.2464 33.3112 34.2877 32.1538 34.7573 32.1538H35.9509V30.5624H34.7573C34.5986 30.5624 34.3508 30.1341 34.3602 29.9536C34.3703 29.7492 34.632 29.4057 34.8298 29.4057H35.9509V27.8142H34.7573C34.2544 27.8142 34.3413 26.7293 34.6849 26.7293H35.8422C35.8502 26.7293 35.9509 26.6286 35.9509 26.6206V25.1379H34.9023C34.2464 25.1379 34.2877 23.9805 34.7573 23.9805H35.9509V19.2793L26.1716 28.926C25.6332 29.081 25.2882 28.5346 25.5317 28.0635L33.347 20.2562V8.64625H28.682L17.4714 19.8583L14.1798 21.0874H24.9932C25.0164 21.0874 25.2839 21.3621 25.3041 21.428C25.4585 21.9382 25.0991 22.2115 24.6323 22.2455L9.94599 22.2484C9.36984 22.2963 8.87414 21.7165 9.30027 21.2346C9.57783 20.9207 11.0352 21.1758 11.494 21.078L13.3695 15.8289L15.9916 13.1706C16.5597 12.8424 17.1091 13.1967 16.896 13.8584C16.7619 14.2751 14.6516 15.9709 14.6914 16.1949L17.0996 18.5502L28.2835 7.38017L25.8615 4.95818L18.5578 12.264C18.0041 12.8815 17.1627 12.4467 17.5164 11.6567L20.4725 8.64625H4.84979V19.3148C4.84979 19.4851 4.42439 19.7003 4.24611 19.6916C4.02072 19.6808 3.69242 19.3815 3.69242 19.1698V2.78766ZM27.6073 3.22683L26.6949 4.12548L29.1169 6.54748C29.2415 6.37862 30.0394 5.71695 30.0155 5.58216L27.6073 3.22683ZM16.0604 19.2053L14.0363 17.1812L13.5536 18.6654C13.721 18.8299 14.4718 19.6945 14.6182 19.6815L16.0604 19.2053Z" fill="#ED1C25" fill-opacity="0.5"/>
<path d="M32.9648 26.1735C33.0518 26.2532 33.1235 26.4243 33.1351 26.5453C32.996 28.4564 33.309 30.6008 33.1351 32.4829C33.1076 32.78 33.0025 33.0598 32.6655 33.0982C30.7283 32.9583 28.5636 33.2714 26.6547 33.0982C26.1967 33.0569 25.9285 32.7887 26.0981 32.3176L32.1886 26.1844C32.4133 25.9778 32.7409 25.9699 32.9648 26.1742V26.1735ZM31.9748 31.9364V28.031L28.0693 31.9364H31.9748Z" fill="#ED1C25" fill-opacity="0.5"/>
</svg>
