<svg width="34" height="39" viewBox="0 0 34 39" fill="none" xmlns="http://www.w3.org/2000/svg">
<path d="M15.0216 38.5188C14.7692 38.3357 14.5062 38.1572 14.2674 37.956C10.9328 35.1548 7.24557 31.9279 4.0963 28.9324C3.44987 28.3176 2.82605 27.7864 2.7379 26.8288C2.67386 26.1334 2.8479 25.5759 3.19296 24.9837H1.3471C1.23559 24.9837 0.785047 24.6989 0.671282 24.6055C-0.581646 23.5816 0.019578 21.4834 1.64545 21.3711L26.3537 21.3809C27.8364 21.7154 28.2975 23.6366 27.1116 24.6055C26.9978 24.6982 26.5473 24.9837 26.4358 24.9837H25.1173C25.3298 25.4523 26.8404 28.8879 27.0506 28.9572C27.2397 29.019 27.5456 28.9407 27.755 28.9693C27.6872 28.234 27.7407 27.2696 28.6388 27.1068C29.2023 27.0044 31.6404 27.0127 32.231 27.0963C32.7984 27.1769 33.1314 27.6335 33.1826 28.1774C33.4606 31.1278 32.9686 34.5084 33.1796 37.5047C33.1186 38.0351 32.8051 38.2973 32.3508 38.5196H15.0223L15.0216 38.5188ZM1.81723 22.5954C0.94854 22.8079 1.16552 23.7933 2.02291 23.7835H25.7615C26.7778 23.7579 26.7665 22.5954 25.7615 22.5743L1.81798 22.5946L1.81723 22.5954ZM11.7065 24.9837H7.56276L13.288 30.2471C12.5647 28.5263 10.6698 26.9961 11.7065 24.9837ZM13.6451 25.001C12.9399 25.1314 12.5232 25.9775 12.7214 26.6397L15.7373 31.8262L15.946 31.8895C16.4651 31.5008 17.2456 31.2664 17.7587 30.9116C17.8416 30.8543 17.9599 30.8001 17.9478 30.6743L15.0223 25.3951C14.6629 25.0018 14.1574 24.9061 13.6443 25.0003L13.6451 25.001ZM20.1448 24.9837H16.3024L19.0915 30.1725L20.1448 29.6458V24.9837ZM23.6858 24.9837H21.4256V30.3978L15.2205 33.6992L6.12525 25.4787C4.74349 24.5061 3.30522 26.208 4.36829 27.4579L15.5113 37.3156H27.7543V30.2471H26.1721L23.6858 24.9837ZM31.9734 28.292H28.9597V37.3156H31.9734V28.292Z" fill="#ED1C25" fill-opacity="0.5"/>
<path d="M13.5701 6.05286C13.9672 5.97978 14.4049 6.03553 14.7161 6.30299C15.3987 6.88914 15.7641 9.50048 16.2998 10.3624L20.4774 10.4031C21.4531 10.5809 21.7244 11.7457 21.1239 12.4637L17.8194 14.8098L19.0151 18.4797C19.1447 19.554 18.1939 20.1756 17.2144 19.7507L13.8647 17.4739L10.5188 19.7771L10.231 19.8652C7.249 19.881 9.79328 16.2978 9.96356 14.8105L6.6975 12.5021C6.09025 11.8737 6.27183 10.7421 7.12394 10.4483L11.4839 10.3631C11.67 10.2381 12.5041 7.22065 12.7836 6.69703C12.9539 6.37834 13.1949 6.12293 13.5701 6.05361V6.05286ZM12.3474 11.6741H7.7892L11.4734 14.2816L10.0502 18.5919L13.8662 15.9753L17.7343 18.5158L16.3103 14.2801L19.9945 11.6741H15.4364L13.8549 7.46249L12.3474 11.6741Z" fill="#ED1C25" fill-opacity="0.5"/>
<path d="M4.82933 3.72003C4.94009 3.69517 5.07645 3.68311 5.18721 3.7042C5.58727 3.77954 7.7684 6.36978 8.32066 6.74498C8.62428 7.37935 8.07504 7.91956 7.44594 7.61819L4.46996 4.64823C4.27407 4.31372 4.43605 3.80969 4.82858 3.72003H4.82933Z" fill="#ED1C25" fill-opacity="0.5"/>
<path d="M22.684 3.71784C23.2551 3.54531 23.7019 4.05311 23.4954 4.60386L20.4878 7.61676C19.876 7.90456 19.3547 7.42765 19.5815 6.78649L22.684 3.71784Z" fill="#ED1C25" fill-opacity="0.5"/>
<path d="M13.7194 0.0345869C14.1059 -0.0806855 14.5203 0.0963646 14.5745 0.503208C14.7192 1.58737 14.46 2.994 14.5693 4.11508C14.3711 4.73062 13.4452 4.67336 13.3615 4.04576C13.2169 2.9616 13.476 1.55498 13.3668 0.4339C13.3917 0.304313 13.5958 0.0715042 13.7194 0.0345869Z" fill="#ED1C25" fill-opacity="0.5"/>
</svg>
