<svg width="50" height="50" viewBox="0 0 50 50" fill="none" xmlns="http://www.w3.org/2000/svg">
<path d="M-0.000410033 4.38217e-05L49.4562 4.65191e-05V49.3352L-0.000410033 49.3352V4.38217e-05ZM2.85638 2.73294L2.85639 6.80489L23.969 6.80489L23.969 2.73294L2.85638 2.73294ZM2.85758 7.63048L2.85758 12.6483L23.9631 12.6483L23.9631 7.63048L2.85758 7.63048ZM2.85758 13.4608L2.85758 18.4787H23.9655V13.4608L2.85758 13.4608ZM2.86472 19.2149V23.9588L23.9595 23.9576L23.9595 19.2137L2.86472 19.2149ZM2.85758 25.3741L2.85758 46.5915L6.89617 46.5915L6.89616 25.3741H2.85758ZM25.4939 2.77583L25.5011 23.96L30.1603 23.9588L30.1532 2.77464L25.4939 2.77583ZM7.62287 25.3741L7.62287 46.5677L12.6407 46.5677L12.6407 25.3741H7.62287ZM30.9812 2.77344V23.9647H35.999V2.77344H30.9812ZM13.4675 25.3741L13.4687 46.6475L18.4866 46.6475L18.4854 25.3741H13.4675ZM36.6971 2.74009L36.6697 23.9659L41.8532 23.9719L41.8806 2.74605L36.6971 2.74009ZM19.2979 25.3741L19.2978 46.5653L23.9678 46.5653L23.9678 25.3741L19.2979 25.3741ZM42.5275 2.8616L42.5287 23.9659L46.5935 23.9659L46.5923 2.8616H42.5275ZM25.4927 25.3741L25.4927 30.1274L46.6006 30.1274L46.6006 25.3741H25.4927ZM25.4927 30.8542L25.4927 35.872L46.6006 35.872L46.6006 30.8541L25.4927 30.8542ZM25.4927 36.6988V41.7166L46.6006 41.7143V36.6964L25.4927 36.6988ZM25.4927 42.5291L25.4927 46.5892L46.6006 46.5892V42.5291H25.4927Z" fill="#ED1C25" fill-opacity="0.5"/>
</svg>
