<svg width="52" height="52" viewBox="0 0 52 52" fill="none" xmlns="http://www.w3.org/2000/svg">
<g clip-path="url(#clip0_3407_1298)">
<path d="M30.9739 44.6694L29.4915 51.1085C29.3077 51.6468 28.927 51.8461 28.3851 51.9082C27.3277 52.0275 24.5492 52.0347 23.4989 51.9105C23.0048 51.8521 22.6181 51.5215 22.4522 51.0512L21.0355 44.6658C19.4458 44.1979 17.862 43.6238 16.4429 42.7525L16.1815 42.7919L10.862 46.178C10.4956 46.3642 10.0326 46.3737 9.65421 46.2186C8.62302 45.0597 6.88288 43.8243 5.98895 42.6189C5.69654 42.225 5.62373 42.003 5.70131 41.4934C6.71699 39.4572 8.13607 37.6287 9.26632 35.6486C8.44638 34.1937 7.78398 32.6421 7.37461 31.0153L0.862824 29.521C0.513126 29.3646 0.163427 28.9994 0.102558 28.6139C-0.0406627 27.7056 -0.0191795 24.4473 0.0930104 23.496C0.172975 22.8157 0.58593 22.62 1.16717 22.4266C3.07082 21.7929 5.38861 21.6186 7.33403 21.0302C7.8174 19.4798 8.35448 17.9186 9.21978 16.5329C9.29377 16.2883 9.10878 16.0961 9.00494 15.898C8.11578 14.196 6.68715 12.5191 5.75979 10.8052C5.62373 10.3707 5.63209 9.89568 5.87795 9.50659C6.13694 9.09362 8.92617 6.32462 9.38448 5.98446C9.85353 5.63595 10.2116 5.57746 10.7833 5.78156L16.2627 9.24401C17.8083 8.65798 19.2727 7.7497 20.9424 7.4179L22.482 0.857026C22.6766 0.417804 23.0418 0.167162 23.5132 0.101517C24.4621 -0.0333523 27.4232 -0.0285782 28.3887 0.0883884C29.1848 0.183871 29.3925 0.571771 29.6025 1.25686C30.2005 3.19994 30.3676 5.40679 31.0061 7.35822C31.9502 7.66615 32.8847 7.99318 33.8025 8.37392C34.2847 8.57443 35.4268 9.33114 35.8219 9.20462L41.2225 5.78156C41.7632 5.54882 42.2358 5.72188 42.6798 6.04772C43.2921 6.49768 45.4237 8.64246 45.8999 9.26072C46.2066 9.65936 46.3821 9.98042 46.3093 10.5044C45.2769 12.531 43.8506 14.3535 42.7454 16.3491C43.4389 17.8434 44.2003 19.3175 44.5882 20.9359C44.6765 21.0612 44.8615 21.0767 45.0012 21.1185C46.7795 21.6508 49.5246 21.8275 51.1131 22.5114C51.5464 22.6976 51.8304 23.0234 51.9056 23.5068C52.0417 24.3888 52.0262 27.4693 51.9164 28.3859C51.828 29.1212 51.4354 29.4136 50.7754 29.6272C48.8801 30.2407 46.5802 30.4126 44.6455 31.0022C44.3495 31.8567 44.0965 32.7233 43.7492 33.5611C43.5093 34.14 42.6297 35.4123 42.8302 35.9112L46.2591 41.3024C46.4119 41.8526 46.3451 42.1808 46.018 42.6213C45.5705 43.224 43.2264 45.5681 42.6237 46.0157C42.1618 46.3594 41.7656 46.4155 41.1987 46.2448L35.6333 42.7645C34.1367 43.5331 32.597 44.2027 30.9763 44.6717L30.9739 44.6694ZM27.3599 2.60317L24.6471 2.60675L23.2375 8.76182L22.7852 9.38126C21.3948 9.92552 19.9518 10.2704 18.5936 10.9066C17.9109 11.2265 16.9633 12.0608 16.2352 12.0082C14.1597 11.1417 12.3873 9.57939 10.3942 8.54818C10.0994 8.55534 8.79011 10.1022 8.45951 10.3922C8.43683 10.7013 11.3896 14.8536 11.7691 15.6318C12.3503 16.8206 11.2237 17.8697 10.7105 18.9868C10.5064 19.432 10.2939 19.9667 10.128 20.4298C9.84875 21.2116 9.71866 22.6271 9.0861 23.0807C7.00582 23.8338 4.7095 24.0295 2.58625 24.7015L2.60893 27.3523L8.76624 28.7583C8.98823 28.8228 9.18874 28.9684 9.32958 29.1486C9.71986 29.6463 10.1937 31.8448 10.5541 32.6898C10.8441 33.3702 11.8837 34.9277 11.9827 35.4386C12.0102 35.5794 12.0221 35.7131 11.9827 35.8539C11.0077 37.8877 9.53486 39.6625 8.48338 41.6617L10.3966 43.5462L15.6182 40.2103C16.6828 39.598 17.9575 40.8154 18.9922 41.2869C19.4398 41.491 19.9721 41.7034 20.4352 41.8693C21.3554 42.1987 22.8759 42.2286 23.2423 43.2312C23.8104 44.7827 24.0169 47.0982 24.4752 48.7883C24.5122 48.9255 24.5767 49.3779 24.7115 49.4101L27.3611 49.3934L28.7134 43.3016C29.1084 42.2345 31.1947 42.0197 32.2545 41.602C33.0183 41.3 35.1356 39.9931 35.6512 39.9931C35.8505 39.9931 36.0379 40.0647 36.217 40.1459L41.4911 43.4508C41.6808 43.4508 43.4544 41.6712 43.4377 41.5041L40.1734 36.3074C39.591 35.3049 40.6138 34.4252 41.0184 33.5671C41.1831 33.2186 41.3383 32.8426 41.4863 32.4857C41.8241 31.6658 42.3349 29.3646 42.8541 28.9696C42.9949 28.8622 43.0784 28.824 43.2407 28.7607C44.7362 28.1735 47.1423 27.9742 48.7953 27.5254C48.9326 27.4884 49.3849 27.424 49.4172 27.2891L49.4005 24.6394C47.5099 24.0964 45.3628 23.9006 43.4986 23.3349C42.7622 23.1117 42.6512 23.0305 42.3802 22.3097C42.0293 21.3751 41.8706 20.4048 41.4517 19.4261C41.1163 18.6407 39.9467 16.9208 39.9944 16.2322C40.1185 15.331 43.5176 10.8195 43.4389 10.4113C43.1572 10.138 41.7465 8.54101 41.5114 8.56369L36.3148 11.828C36.0749 11.9784 35.8183 12.0285 35.5367 12.0082C34.9936 11.9689 33.2045 10.8147 32.4932 10.5151C31.7437 10.2 29.2648 9.60804 28.9389 9.18552C28.822 9.03394 28.7504 8.78569 28.6919 8.5995C28.0975 6.73281 27.9268 4.50447 27.3635 2.60198L27.3599 2.60317Z" fill="#ED1C25" fill-opacity="0.5"/>
<path d="M26.8534 38.2863C26.4584 38.6778 25.3663 38.6085 24.8054 38.5703C19.7592 38.2242 15.2274 34.2867 13.8788 29.4839C11.7687 21.9718 17.0523 13.9322 24.9307 13.4321C25.7506 13.3796 26.7758 13.2853 27.1411 14.1959C27.9264 16.1557 24.9868 15.9015 23.9126 16.1068C13.1579 18.1561 13.1698 34.3464 24.6932 36.0615C25.4236 36.1701 26.4822 35.8885 26.9954 36.6177C27.3595 37.1345 27.3046 37.8387 26.8534 38.2851V38.2863Z" fill="#ED1C25" fill-opacity="0.5"/>
<path d="M31.9496 26.0144C31.9496 29.3109 29.2774 31.9845 25.9797 31.9845C22.682 31.9845 20.0098 29.3121 20.0098 26.0144C20.0098 22.7166 22.682 20.0443 25.9797 20.0443C29.2774 20.0443 31.9496 22.7166 31.9496 26.0144ZM29.4719 26.012C29.4719 24.0856 27.9096 22.5233 25.9833 22.5233C24.057 22.5233 22.4947 24.0856 22.4947 26.012C22.4947 27.9384 24.057 29.5007 25.9833 29.5007C27.9096 29.5007 29.4719 27.9384 29.4719 26.012Z" fill="#ED1C25" fill-opacity="0.5"/>
<path d="M35.9165 24.7755C36.4416 24.6692 38.6305 24.6848 39.0781 24.8948C40.1427 25.3937 39.8479 27.0671 38.7415 27.2425C38.2128 27.3261 35.9821 27.3094 35.5596 27.1029C34.563 26.6171 34.7802 25.0058 35.9165 24.7755Z" fill="#ED1C25" fill-opacity="0.5"/>
<path d="M34.4875 29.897C35.1619 29.7597 36.7289 30.6644 37.2994 31.0798C38.6588 32.0728 37.9893 33.7342 36.6609 33.5146C36.279 33.4513 34.1927 32.2542 33.9194 31.9582C33.2678 31.2516 33.5459 30.0879 34.4875 29.8958V29.897Z" fill="#ED1C25" fill-opacity="0.5"/>
<path d="M36.3894 18.5787C37.6652 18.2839 38.5842 19.506 37.8359 20.5014C37.6449 20.7557 35.5718 21.9826 35.2364 22.0709C34.469 22.2715 33.7612 22.0339 33.5918 21.2068C33.4223 20.3797 33.7947 20.1135 34.4081 19.6958C34.6803 19.5096 36.1709 18.63 36.3882 18.5798L36.3894 18.5787Z" fill="#ED1C25" fill-opacity="0.5"/>
<path d="M30.9172 33.5862C31.3027 33.5337 31.6667 33.653 31.9484 33.9287C32.1847 34.1615 33.3066 36.0998 33.3901 36.4173C33.7506 37.797 32.3446 38.6038 31.4137 37.7994C31.2633 37.6693 29.9898 35.5615 29.9266 35.355C29.6735 34.5207 30.0173 33.7079 30.9172 33.5862Z" fill="#ED1C25" fill-opacity="0.5"/>
<path d="M31.9864 13.9333C33.0271 13.7328 33.6477 14.6292 33.421 15.6103C33.3816 15.7797 32.1666 17.8637 32.0198 18.02C31.1509 18.9474 29.6053 18.2802 29.9001 16.8527C29.9622 16.5508 31.09 14.591 31.3192 14.3415C31.4863 14.1601 31.7465 13.9787 31.9864 13.9333Z" fill="#ED1C25" fill-opacity="0.5"/>
</g>
<defs>
<clipPath id="clip0_3407_1298">
<rect width="52" height="52" fill="white"/>
</clipPath>
</defs>
</svg>
