<svg width="51" height="51" viewBox="0 0 51 51" fill="none" xmlns="http://www.w3.org/2000/svg">
<g clip-path="url(#clip0_3407_1339)">
<path d="M12.7864 45.8084C11.7308 45.632 10.3914 44.2478 10.2128 43.1854C10.0087 41.9765 10.0214 36.4109 10.2128 35.1785C10.4594 33.5967 12.2241 32.1997 13.807 32.1753L17.3214 21.6071C17.7754 20.4746 18.8756 19.6162 20.1045 19.51L41.2104 19.5259C42.2787 19.7097 43.2195 20.4183 43.7022 21.3829L47.3368 32.2231C49.0653 32.1774 50.7768 33.7539 50.9341 35.4664C51.1531 37.8556 50.7608 40.5742 50.9299 42.9995C50.6779 44.2988 49.7095 45.4217 48.3955 45.7149C48.1 47.336 49.2853 50.675 46.8488 50.9023C45.6316 51.016 42.3936 51.0542 41.2306 50.8885C40.7331 50.8184 39.8954 50.1778 39.8954 49.6785V45.8084H21.2218V49.6785C21.2218 49.8325 20.8338 50.3913 20.6849 50.5199C20.3362 50.8205 20.0205 50.8673 19.5815 50.9012C18.4121 50.9937 15.0348 51.0648 13.9781 50.8726C13.5221 50.7897 12.7333 50.1321 12.7333 49.6774V47.5039H14.431V49.2004H19.5241V45.8073H12.7864V45.8084ZM42.3351 22.9063C42.1522 21.879 41.5112 21.3149 40.4769 21.2108C34.0868 21.5656 27.1749 20.7338 20.8455 21.2055C19.6952 21.2916 19.0074 21.7292 18.781 22.9063H42.3351ZM15.7045 32.2369H45.4116L42.907 24.5965H18.2091L15.7045 32.2369ZM13.8771 33.9632C12.6578 34.1151 11.9977 34.9151 11.886 36.1092C11.7446 37.6209 11.734 40.8525 11.8977 42.3494C12.0274 43.5328 12.7705 44.1086 13.9484 44.1171H47.2719C48.5561 44.0162 49.1344 43.4351 49.2343 42.155C49.3566 40.5912 49.3831 37.5497 49.2173 36.0146C49.0685 34.6357 48.2159 33.9685 46.8477 33.9292L13.8761 33.9643L13.8771 33.9632ZM41.592 45.8084V49.2015H46.6851V45.8084H41.592Z" fill="#ED1C25" fill-opacity="0.5"/>
<path d="M39.0462 36.4778H22.0703V38.1743H39.0462V36.4778Z" fill="#ED1C25" fill-opacity="0.5"/>
<path d="M39.0462 39.871H22.0703V41.5675H39.0462V39.871Z" fill="#ED1C25" fill-opacity="0.5"/>
<path d="M20.4082 39.0232C20.4082 40.9174 18.8721 42.4535 16.9756 42.4535C15.0791 42.4535 13.543 40.9184 13.543 39.0232C13.543 37.128 15.0791 35.5929 16.9756 35.5929C18.8721 35.5929 20.4082 37.128 20.4082 39.0232ZM18.6233 39.0243C18.6233 38.116 17.8866 37.3798 16.9777 37.3798C16.0688 37.3798 15.3321 38.116 15.3321 39.0243C15.3321 39.9326 16.0688 40.6688 16.9777 40.6688C17.8866 40.6688 18.6233 39.9326 18.6233 39.0243Z" fill="#ED1C25" fill-opacity="0.5"/>
<path d="M47.5703 39.0232C47.5703 40.9174 46.0342 42.4535 44.1377 42.4535C42.2412 42.4535 40.7051 40.9184 40.7051 39.0232C40.7051 37.128 42.2412 35.5929 44.1377 35.5929C46.0342 35.5929 47.5703 37.128 47.5703 39.0232ZM45.7854 39.0243C45.7854 38.116 45.0487 37.3798 44.1398 37.3798C43.2309 37.3798 42.4942 38.116 42.4942 39.0243C42.4942 39.9326 43.2309 40.6688 44.1398 40.6688C45.0487 40.6688 45.7854 39.9326 45.7854 39.0243Z" fill="#ED1C25" fill-opacity="0.5"/>
<path d="M28.8588 17.8166H27.1611V3.34426C27.1611 2.43489 26.0906 1.63495 25.2019 1.69657H3.65702C2.37497 1.79749 1.79455 2.3754 1.69462 3.65765V25.1893C1.63296 26.0774 2.43344 27.1472 3.34342 27.1472H12.7334V28.8437H2.60034C1.68186 28.8437 -0.0158343 27.0388 0.000111537 26.0338V2.81415C0.226542 1.42142 1.48626 0.129606 2.91394 0L26.0481 0.00424938C27.0527 -0.0116858 28.8599 1.68382 28.8599 2.60275V17.8177L28.8588 17.8166Z" fill="#ED1C25" fill-opacity="0.5"/>
<path d="M11.8837 18.6654V24.9736C11.8837 25.0108 11.4414 25.458 11.2979 25.4485C9.56515 25.321 7.58256 25.6259 5.88273 25.457C5.48409 25.4177 5.32676 25.3019 5.11521 24.9513L5.08651 4.18564C5.05036 3.79682 5.40861 3.42394 5.77749 3.39101C9.4429 3.66934 13.625 3.03193 17.2287 3.41013C23.641 4.08259 26.0808 12.6547 21.1641 16.8594C20.4136 17.5021 18.3066 18.6654 17.3478 18.6654H11.8837ZM10.186 23.754V17.4458C10.186 17.4087 10.6282 16.9614 10.7717 16.971C14.4265 16.7957 18.6075 17.8729 20.9877 14.3512C23.5741 10.5247 20.8739 5.09395 16.1795 5.09395H6.79058V23.7551H10.186V23.754Z" fill="#ED1C25" fill-opacity="0.5"/>
<path d="M10.6848 8.50828C12.5547 8.59433 14.6595 8.31812 16.5029 8.48172C19.2466 8.72606 19.4858 12.8851 16.791 13.5502L10.6848 13.5534C10.4839 13.4312 10.233 13.224 10.1873 12.9893C10.0746 12.3996 10.1118 9.94351 10.1788 9.27423C10.2181 8.87585 10.334 8.71862 10.6848 8.50722V8.50828ZM11.8839 11.8791H16.1808C17.1375 11.8791 17.1375 10.1825 16.1808 10.1825H11.8839V11.8791Z" fill="#ED1C25" fill-opacity="0.5"/>
</g>
<defs>
<clipPath id="clip0_3407_1339">
<rect width="51" height="51" fill="white"/>
</clipPath>
</defs>
</svg>
