<svg width="52" height="52" viewBox="0 0 52 52" fill="none" xmlns="http://www.w3.org/2000/svg">
<g clip-path="url(#clip0_3407_1311)">
<path d="M15.4206 0.0742517C15.8142 -0.00700125 18.7414 -0.00636646 19.1376 0.0742517C20.2295 0.296428 20.2181 2.04971 18.8906 2.21095C18.2945 2.28332 16.0434 2.30236 15.4974 2.19C14.3433 1.95259 14.3617 0.292619 15.42 0.0742517H15.4206Z" fill="#ED1C25" fill-opacity="0.5"/>
<path d="M32.2434 0.0742214C32.8052 -0.0400406 35.0792 -4.88722e-05 35.7229 0.0570821C37.0466 0.174518 37.1088 2.04143 35.7134 2.21092C35.1313 2.28138 32.7843 2.29789 32.2726 2.17474C31.1382 1.90178 31.2004 0.286241 32.2434 0.0742214Z" fill="#ED1C25" fill-opacity="0.5"/>
<path d="M50.7176 6.86713C51.3518 6.76557 51.8832 7.20548 51.9422 7.83392C52.0089 8.5398 52.0362 10.6568 51.9244 11.3126C51.7302 12.4533 49.9101 12.5244 49.7787 11.0129C49.7152 10.2823 49.6968 8.55504 49.7977 7.85296C49.8688 7.35846 50.2098 6.94839 50.717 6.86713H50.7176Z" fill="#ED1C25" fill-opacity="0.5"/>
<path d="M40.6219 0.0742432H44.3389C45.5051 0.421473 45.3749 2.04653 44.1573 2.21221C43.4628 2.3068 41.7113 2.28204 40.9863 2.21983C39.6316 2.10303 39.4456 0.58017 40.6219 0.0736084V0.0742432Z" fill="#ED1C25" fill-opacity="0.5"/>
<path d="M23.2647 0.396626C23.4012 0.236024 23.7605 0.0824051 23.9745 0.0595527C24.6258 -0.0102741 26.9163 -0.0343961 27.515 0.0747876C28.6177 0.276016 28.6018 2.01343 27.3874 2.20323C26.7728 2.29909 24.6131 2.29337 23.991 2.20197C23.1467 2.07755 22.7201 1.0384 23.2641 0.39726L23.2647 0.396626Z" fill="#ED1C25" fill-opacity="0.5"/>
<path d="M50.1817 15.5053C50.7905 15.0051 51.8253 15.3548 51.9345 16.1579C52.0145 16.7463 52.0266 19.2004 51.9256 19.7558C51.7269 20.8458 49.9481 20.8972 49.7888 19.5102C49.7037 18.7668 49.7151 17.164 49.7831 16.4073C49.8116 16.0944 49.9341 15.7097 50.1824 15.5059L50.1817 15.5053Z" fill="#ED1C25" fill-opacity="0.5"/>
<path d="M49.7813 2.21792C48.9414 2.33028 48.1384 1.84848 48.2628 0.92232C48.3053 0.6081 48.5834 0.257062 48.8767 0.140261C49.2017 0.0107637 50.5533 0.0196507 50.9577 0.057738C51.4782 0.106617 51.8826 0.449403 51.9391 0.980721C51.981 1.36985 51.9874 2.69338 51.8896 3.02601C51.7804 3.39736 51.404 3.70841 51.018 3.74269C50.1045 3.82331 49.6931 3.0349 49.7807 2.21856L49.7813 2.21792Z" fill="#ED1C25" fill-opacity="0.5"/>
<path d="M8.62833 0.0748089C9.02701 0.00752132 10.0992 0.0176779 10.5201 0.0570348C11.5771 0.156062 11.8908 1.45801 11.0153 2.01726C10.5493 2.31498 8.82069 2.31879 8.34583 2.04075C7.50785 1.54942 7.71734 0.228428 8.62833 0.0748089Z" fill="#ED1C25" fill-opacity="0.5"/>
<path d="M2.48613 7.29626L2.11665 8.22813C1.66084 9.54849 -0.190339 9.12191 0.0159823 7.71395L2.56612 0.679217C2.95654 -0.172035 4.17796 -0.172035 4.56331 0.681121C5.2483 2.67626 6.05327 4.63522 6.74143 6.62846C7.00552 7.39338 7.51783 8.45475 6.46718 8.89529C5.46287 9.31679 4.92961 8.32779 4.77153 7.48669C4.70742 7.4594 4.6452 7.6346 4.6452 7.64475V47.3508H44.6398L43.7073 46.982C42.3963 46.3745 42.934 44.538 44.5103 44.9729C46.7672 45.5956 49.0697 46.8252 51.3494 47.4657C52.0725 47.792 52.169 48.854 51.5278 49.318C49.177 50.2892 46.7399 51.0903 44.3503 51.9803C43.0331 52.186 42.5163 50.6155 43.6095 49.9699L44.7668 49.5084H3.27967C3.25174 49.5084 2.84989 49.2723 2.80037 49.226C2.74006 49.1695 2.48613 48.7505 2.48613 48.715V7.29626Z" fill="#ED1C25" fill-opacity="0.5"/>
<path d="M45.2327 9.4768L10.5205 44.2442C9.43878 45.1469 8.13292 43.8944 8.92837 42.7797L44.003 7.70764C45.3228 6.83164 46.5011 8.56969 45.2327 9.4768Z" fill="#ED1C25" fill-opacity="0.5"/>
<path d="M45.4421 16.4589C45.8065 16.822 45.8865 17.4796 45.5545 17.8935L19.1193 44.3381C18.1886 45.0288 16.9983 43.9757 17.5404 42.9499C18.0508 41.9837 19.8309 40.8684 20.4727 39.8832C28.4177 32.0994 36.1665 24.1011 44.1343 16.3465C44.4809 16.0869 45.1463 16.1643 45.4415 16.4589H45.4421Z" fill="#ED1C25" fill-opacity="0.5"/>
<path d="M35.6722 7.5026C36.6264 7.33945 37.2485 8.05296 36.9451 8.96578C28.2066 17.9157 19.244 26.691 10.4242 35.5787C9.30943 36.4033 8.10133 34.9464 8.99328 33.9574L35.2431 7.70763C35.3561 7.60416 35.5237 7.52799 35.6729 7.5026H35.6722Z" fill="#ED1C25" fill-opacity="0.5"/>
<path d="M37.0627 35.2048C34.0237 38.2493 30.9295 41.2359 27.9115 44.3045C26.7695 45.1278 25.5887 43.7446 26.4508 42.7169L43.9741 25.1986C44.9842 24.395 46.3065 25.5566 45.5555 26.6529C42.6969 29.4758 39.8998 32.3616 37.062 35.2042L37.0627 35.2048Z" fill="#ED1C25" fill-opacity="0.5"/>
<path d="M27.1665 7.44041C28.1118 7.40804 28.6076 8.4802 28.0394 9.20259L10.4227 26.818C9.4051 27.6172 8.12527 26.373 8.92834 25.3237L26.5133 7.7394C26.6847 7.56737 26.9202 7.44867 27.1665 7.44041Z" fill="#ED1C25" fill-opacity="0.5"/>
<path d="M9.23816 16.2056L17.8186 7.67783C18.7188 7.01955 19.8875 7.90952 19.4685 8.94677C16.6042 12.1055 13.4363 15.0242 10.4539 18.0877C9.59494 18.7517 8.40907 17.9931 8.72649 16.9318C8.82552 16.6011 9.06041 16.4779 9.23816 16.2056Z" fill="#ED1C25" fill-opacity="0.5"/>
<path d="M45.1231 35.8376C42.3794 38.7037 39.4261 41.3825 36.6976 44.267C35.7885 45.0427 34.5614 44.1241 34.9632 43.0399C37.9076 39.9244 41.0247 36.9529 44.0363 33.8939C44.7638 33.2807 45.8964 33.9434 45.7681 34.8613C45.704 35.3209 45.4126 35.5354 45.1231 35.8376Z" fill="#ED1C25" fill-opacity="0.5"/>
<path d="M50.7195 23.6903C51.2978 23.6135 51.8698 24.0014 51.9422 24.593C52.0761 25.6899 51.8514 27.0712 51.9263 28.1986C51.4204 29.4238 49.8967 29.1781 49.7799 27.8342C49.7209 27.1499 49.6917 25.1872 49.8104 24.5587C49.8917 24.1277 50.2834 23.7481 50.7201 23.6897L50.7195 23.6903Z" fill="#ED1C25" fill-opacity="0.5"/>
<path d="M50.5892 32.1311C51.2462 31.9959 51.8665 32.3501 51.9401 33.0369C52.0099 33.6889 52.0347 35.9779 51.9249 36.5772C51.7205 37.6988 49.9169 37.6842 49.7817 36.3372C49.7099 35.6205 49.696 33.7447 49.7975 33.0535C49.8591 32.6345 50.1537 32.22 50.5885 32.1305L50.5892 32.1311Z" fill="#ED1C25" fill-opacity="0.5"/>
<path d="M50.6532 40.5103C51.2487 40.389 51.867 40.8029 51.942 41.4148C51.9832 41.7557 51.9877 43.1853 51.9109 43.4811C51.6836 44.3514 50.2812 44.4732 49.8972 43.5864C49.7175 43.1713 49.7219 41.6237 49.8787 41.1958C49.993 40.8854 50.3307 40.5756 50.6532 40.5103Z" fill="#ED1C25" fill-opacity="0.5"/>
</g>
<defs>
<clipPath id="clip0_3407_1311">
<rect width="52" height="52" fill="white"/>
</clipPath>
</defs>
</svg>
