<svg width="47" height="48" viewBox="0 0 47 48" fill="none" xmlns="http://www.w3.org/2000/svg">
<g clip-path="url(#clip0_3407_1354)">
<path d="M2.77699 48C1.15793 47.5398 0.141958 46.2811 0 44.5773V10.6456C0.100205 9.90169 0.260719 9.17564 0.741334 8.58391C3.38378 6.31747 5.81191 2.89198 8.4692 0.751409C8.94147 0.371008 9.62528 0.0535379 10.2274 0H34.6812C36.2279 0.212273 37.4304 1.40889 37.6772 2.96619L37.6818 12.9815C37.4656 13.8907 36.3819 13.7414 36.2279 12.8707L36.1982 3.05823C35.9217 1.88604 35.0626 1.48403 33.9418 1.40513C26.4022 1.76018 18.461 0.947714 10.9678 1.40513C10.7266 1.42016 10.5113 1.469 10.2775 1.50376V8.20632C10.2775 8.98403 9.0658 10.3159 8.28642 10.3159H1.61906C1.60885 10.3159 1.47988 10.4465 1.47988 10.4568V44.7671C1.47988 44.8957 1.77215 45.5448 1.86586 45.6885C2.29544 46.3478 3.00616 46.5366 3.74471 46.5986H34.0327C34.9494 46.5826 36.0201 46.0003 36.1834 45.0254C36.2966 44.3491 35.8939 42.7909 36.9906 42.8388C38.065 42.8857 37.7264 45.0836 37.4805 45.7768C37.0667 46.9443 36.1073 47.597 35.0013 48.0009H2.77699V48ZM8.7958 8.1124V2.53507L2.59142 8.8159H8.10086C8.30591 8.8159 8.75312 8.30776 8.7958 8.1124Z" fill="#ED1C25" fill-opacity="0.5"/>
<path d="M30.3719 8.8159V6.42548C30.3719 6.41514 30.2429 6.28459 30.2327 6.28459H15.972C15.9618 6.28459 15.8328 6.41514 15.8328 6.42548V8.8159H17.2682C17.9047 8.8159 18.2099 10.098 17.3415 10.2962C17.0038 10.3732 15.9024 10.3488 15.5499 10.2746C15.1156 10.1825 14.7399 9.81057 14.5478 9.4142C14.2797 8.85816 14.2657 6.81339 14.3734 6.16718C14.5144 5.31245 15.239 4.8137 16.0611 4.78271C20.6149 5.04946 25.5416 4.43988 30.0509 4.78271C30.7569 4.83625 31.45 5.09079 31.7145 5.81683C31.9325 6.41796 31.9269 8.51533 31.7544 9.13994C31.6078 9.66968 31.2775 10.0003 30.7922 10.2285C27.2943 10.4333 23.7481 10.2633 20.2335 10.3159C19.4514 10.1252 19.6054 8.81777 20.3245 8.81777H30.3719V8.8159Z" fill="#ED1C25" fill-opacity="0.5"/>
<path d="M24.3224 33.0657C24.2481 33.1474 24.1043 33.2029 24.005 33.2573L5.96809 33.2846C4.92243 33.1615 5.08851 31.7019 6.1518 31.7789L23.7517 31.7808C24.3892 31.8456 24.7909 32.5463 24.3224 33.0657Z" fill="#ED1C25" fill-opacity="0.5"/>
<path d="M5.80693 16.9913L23.7539 16.9688C24.7754 17.1463 24.7764 18.295 23.7539 18.4725H5.97023C5.12498 18.4002 5.00807 17.2609 5.80693 16.9904V16.9913Z" fill="#ED1C25" fill-opacity="0.5"/>
<path d="M5.71323 21.959L23.8458 21.9384C24.8469 22.0576 24.6576 23.4421 23.6583 23.4402L6.24581 23.444C5.27252 23.459 4.8819 22.5432 5.71323 21.96V21.959Z" fill="#ED1C25" fill-opacity="0.5"/>
<path d="M5.48897 27.0301C5.64577 26.8957 6.0336 26.8291 6.24515 26.8103H23.4758C24.5558 26.722 24.9947 28.0792 23.8451 28.3159L5.87309 28.3187C5.27371 28.2689 5.05196 27.4029 5.48804 27.0291L5.48897 27.0301Z" fill="#ED1C25" fill-opacity="0.5"/>
<path d="M5.99467 39.0235C8.76516 39.2142 12.0599 38.6919 14.7691 39.001C15.8788 39.1278 15.9465 40.3864 14.9566 40.5028L5.78962 40.4981C5.01953 40.1591 5.10118 39.1287 5.99467 39.0235Z" fill="#ED1C25" fill-opacity="0.5"/>
<path d="M32.1204 34.9828C31.0525 34.7649 30.0672 33.9853 29.7879 32.891C29.6691 32.4261 29.7628 31.9443 29.4891 31.5056C29.1997 31.0416 28.3303 30.8322 27.8719 30.4245C27.1816 29.8112 26.8485 28.8212 26.9571 27.9026C27.0786 26.8732 27.9183 26.5022 27.5463 25.4098C27.0981 24.092 26.4607 23.5482 27.3709 22.0416C27.9452 21.0911 28.3841 21.2282 29.1069 20.706C29.8844 20.1443 29.6014 19.1966 29.9855 18.4076C30.3288 17.7032 31.2232 16.9903 32.0008 16.886C32.8469 16.7724 33.9102 17.2646 34.5866 16.6916C34.7657 16.5404 34.8381 16.3159 34.9986 16.1713C35.9951 15.2705 37.4118 15.0939 38.5521 15.8622C39.3761 16.4173 39.2313 17.0138 40.5164 16.9753C41.9582 16.9321 43.1579 16.7883 43.9437 18.3729C44.3724 19.2389 44.0217 20.181 44.9189 20.7605C45.1082 20.8826 45.4032 20.9427 45.6231 21.0789C46.7643 21.7843 47.2672 23.1284 46.8608 24.4302C46.679 25.0116 46.2577 25.3441 46.293 26.0213C46.3199 26.5238 46.6298 26.7802 46.7894 27.2104C47.2682 28.4962 46.9249 29.7811 45.8282 30.6039C45.2455 31.0416 44.5255 31.0341 44.3019 31.871C43.9966 33.015 44.1024 33.9355 42.8461 34.6155C42.6021 34.748 41.9146 34.8888 41.8663 35.0307L41.8543 41.3932C41.7875 41.9934 41.4126 42.6077 40.8198 42.7824C39.5653 43.1525 38.1207 41.5116 36.9934 41.0673C35.4421 41.7248 33.1188 44.3867 32.1288 41.582L32.1186 34.9837L32.1204 34.9828ZM36.6445 16.8992C36.0684 17.0175 35.5395 17.9662 34.8436 18.263C33.5539 18.8125 31.7131 17.7041 31.2334 19.2952C30.8827 20.458 31.1611 21.0103 29.9948 21.8848C29.4613 22.2849 28.7042 22.3375 28.4908 23.0814C28.1781 24.1747 29.1737 24.7646 29.1681 25.9245C29.1625 27.0845 27.9192 28.0022 28.6559 29.0682C29.1124 29.7286 30.1182 29.7182 30.7269 30.7223C31.4292 31.8813 30.8048 33.5833 32.7328 33.4687C33.5419 33.4208 33.8304 33.1954 34.723 33.5194C35.7984 33.9101 36.3254 35.6083 37.7013 34.7489C38.3202 34.3619 38.4334 33.7758 39.3965 33.4649C40.367 33.1512 40.9153 33.5861 41.7105 33.4649C42.8786 33.2865 42.6791 32.0072 42.989 31.1966C43.5169 29.814 44.2147 30.047 45.0516 29.3472C46.2355 28.3572 44.9421 27.3419 44.8289 26.289C44.7036 25.129 45.1239 24.9139 45.4468 24.0291C46.0443 22.3957 44.0922 22.3178 43.3527 21.3137C42.7608 20.5097 42.9621 20.025 42.7107 19.2455C42.2551 17.8384 40.5767 18.6481 39.5347 18.4292C38.2914 18.1681 37.9444 16.6315 36.6445 16.8992ZM40.3735 34.7827C39.5449 34.7423 39.2814 35.3923 38.7507 35.8112C37.834 36.5363 36.7086 36.6594 35.6601 36.1324C34.8789 35.7398 34.5504 34.7188 33.5215 34.7827V41.3444C34.5328 41.0476 35.9004 39.5833 36.8997 39.557C38.0214 39.5269 39.3176 40.9668 40.3735 41.3444V34.7827Z" fill="#ED1C25" fill-opacity="0.5"/>
<path d="M42.8318 25.9171C42.8318 29.1923 40.2089 31.8476 36.9735 31.8476C33.7382 31.8476 31.1152 29.1923 31.1152 25.9171C31.1152 22.6419 33.7382 19.9866 36.9735 19.9866C40.2089 19.9866 42.8318 22.6419 42.8318 25.9171ZM41.3584 25.918C41.3584 23.4647 39.3933 21.4753 36.9698 21.4753C34.5463 21.4753 32.5812 23.4647 32.5812 25.918C32.5812 28.3714 34.5463 30.3607 36.9698 30.3607C39.3933 30.3607 41.3584 28.3714 41.3584 25.918Z" fill="#ED1C25" fill-opacity="0.5"/>
</g>
<defs>
<clipPath id="clip0_3407_1354">
<rect width="47" height="48" fill="white"/>
</clipPath>
</defs>
</svg>
