<svg width="180" height="137" viewBox="0 0 180 137" fill="none" xmlns="http://www.w3.org/2000/svg">
<path d="M0.298935 136.103C1.00521 113.833 -0.642765 90.9758 0.298941 68.7711C0.965377 53.0349 3.68907 32.836 13.0228 19.69C24.4934 3.53523 44.1967 0.533734 62.8568 -0.000184749L62.8568 36.0071C57.4276 36.5626 51.4912 36.7611 46.9783 40.1774C38.3509 46.7072 37.699 63.9225 37.5468 73.8109L81.6619 73.8109L81.6619 136.103L0.298935 136.103Z" fill="black"/>
<path d="M179.409 136.103L97.9316 136.103C98.8964 104.835 95.3528 72.8677 101.305 42.0581C103.8 30.9573 108.171 20.2208 116.955 12.6123C128.834 2.32316 145.377 0.49046 160.581 -0.000184751L160.581 36.008C156.711 36.4265 152.192 36.5744 148.532 37.8912C135.479 42.5812 135.004 62.3152 134.507 73.8201L179.409 73.8201L179.409 136.103Z" fill="black"/>
</svg>
