<svg width="370" height="86" viewBox="0 0 370 86" fill="none" xmlns="http://www.w3.org/2000/svg">
<path fill-rule="evenodd" clip-rule="evenodd" d="M146.592 45.4388C146.592 41.0503 146.173 38.0639 145.352 36.4796C144.605 35.1139 143.347 34.4219 141.542 34.4219H139.154V56.8746H141.415C143.201 56.8746 144.495 56.1644 145.225 54.7441C146.136 53.0688 146.592 49.9549 146.592 45.4388ZM150.512 45.1475C150.512 50.5194 149.91 54.4163 148.688 56.8382C147.412 59.3511 145.298 60.6076 142.362 60.6076H135.398V30.6889H142.472C145.061 30.6889 146.975 31.5084 148.16 33.1654C149.728 35.3688 150.512 39.375 150.512 45.1475ZM132.554 60.6076H119.501V30.6889H132.226V34.7497H123.293V43.0534H131.698V47.0777H123.293V56.5468H132.573V60.6076H132.554ZM112.337 39.1929C112.337 36.0062 111.024 34.4219 108.435 34.4219H105.61V44.0549H108.435C111.042 44.0549 112.337 42.4342 112.337 39.1929ZM117.186 60.6076H112.902C112.391 59.8246 112.136 57.6394 112.136 54.0703C112.136 51.4481 111.881 49.6999 111.371 48.8259C110.933 48.0429 110.04 47.6422 108.727 47.6422H105.591V60.6076H101.818V30.6889H110.021C111.735 30.6889 113.102 31.1806 114.142 32.1639C115.545 33.4932 116.238 35.642 116.238 38.5738C116.238 40.5222 115.855 42.1611 115.09 43.5086C114.324 44.8379 113.431 45.5845 112.41 45.7848V45.8759C113.686 46.149 114.597 46.7682 115.108 47.7151C115.746 48.9169 116.056 50.9928 116.056 53.961C116.056 57.5848 116.439 59.8064 117.186 60.6258V60.6076ZM99.1743 60.6076H86.1212V30.6889H98.8461V34.7497H89.9131V43.0534H98.3174V47.0777H89.9131V56.5468H99.1743V60.6076ZM84.1888 34.8407H78.5555V60.6076H74.7818V34.8407H69.1303V30.6889H84.1888V34.8407ZM63.6064 39.1929C63.6064 36.0062 62.3121 34.4219 59.6869 34.4219H56.8611V44.0549H59.6869C62.3121 44.0549 63.6064 42.4342 63.6064 39.1929ZM68.4558 60.6076H64.1716C63.6611 59.8246 63.4241 57.6394 63.4241 54.0703C63.4241 51.4481 63.1507 49.6999 62.6585 48.8259C62.2209 48.0429 61.3276 47.6422 59.9968 47.6422H56.8794V60.6076H53.1056V30.6889H61.3094C63.0231 30.6889 64.3904 31.1806 65.4295 32.1639C66.815 33.4932 67.526 35.642 67.526 38.5738C67.526 40.5222 67.1432 42.1611 66.3775 43.5086C65.6118 44.8379 64.7003 45.5845 63.6976 45.7848V45.8759C64.992 46.149 65.8853 46.7682 66.3957 47.7151C67.052 48.9169 67.3619 50.9928 67.3619 53.961C67.3619 57.5848 67.7266 59.8064 68.474 60.6258L68.4558 60.6076ZM45.5035 49.4268L42.8418 35.4235H42.7871L39.9249 49.4268H45.5035ZM51.556 60.6076H47.6365L46.1416 53.2326H39.2869L37.8102 60.6076H33.8542L40.4354 30.6889H45.3759L51.556 60.6076ZM32.3228 60.6076H28.5308V46.7864H21.5485V60.7715L17.7566 60.6076V30.6889H21.5485V42.6345H28.5308V30.6889H32.3228V60.6076ZM15.2408 49.882C15.2408 53.3237 14.6209 56.037 13.3448 58.0582C12.0322 60.1706 10.1544 61.2085 7.76622 61.2085C5.15925 61.2085 3.24504 60.1706 2.06005 58.0947C0.692761 55.7092 0 51.6302 0 45.8213C0 40.0123 0.601609 36.2793 1.7866 33.821C2.98981 31.3445 4.99518 30.1062 7.83914 30.1062C12.6338 30.1062 15.0584 33.4022 15.0584 39.9577H11.23C11.23 35.7877 10.0997 33.7117 7.83914 33.7117C6.27132 33.7117 5.21394 34.7497 4.64879 36.8438C4.15657 38.6102 3.9378 41.6148 3.9378 45.8577C3.9378 50.1006 4.22949 53.3601 4.81287 55.0536C5.39625 56.7289 6.39893 57.5848 7.80268 57.5848C10.2091 57.5848 11.3941 55.0172 11.3941 49.882H15.2408Z" fill="#808285"/>
<path d="M245.712 45.0016C250.051 45.73 253.788 48.5161 253.788 52.8682C253.788 57.7849 249.066 60.6438 242.722 60.6438H232.969V60.4071C235.758 60.4071 235.922 58.8593 235.922 55.8182V35.66C235.922 32.6371 235.758 31.0711 232.969 31.0711V30.8162H242.157C248.556 30.8162 252.238 33.4384 252.238 37.8634C252.238 42.2883 248.592 44.1639 245.712 44.9105V44.9834V45.0016ZM239.769 31.4899C238.784 31.4899 238.219 31.9816 238.219 32.9649V44.8013H241.865C247.28 44.8013 249.704 42.4704 249.704 38.4461C249.704 33.9482 246.879 31.4899 241.993 31.4899H239.787H239.769ZM251.163 52.8682C251.163 47.988 247.754 45.4568 242.029 45.4568H238.219V57.366C238.219 58.75 238.219 59.9883 242.357 59.9883C248.064 59.9883 251.163 57.4935 251.163 52.8682Z" fill="#334E30"/>
<path d="M255.72 60.6441V60.4074C257.398 60.4074 257.525 59.0234 257.525 56.4012V44.2735C257.525 41.6513 256.832 40.6679 255.429 40.4312V40.1945L259.403 38.8105H259.567V56.4194C259.567 59.0416 259.695 60.4256 261.372 60.4256V60.6623H255.72V60.6441ZM256.158 33.1109C256.158 32.1275 256.978 31.3081 257.963 31.3081C258.947 31.3081 259.768 32.1275 259.768 33.1109C259.768 34.0942 258.947 34.9136 257.963 34.9136C256.978 34.9136 256.158 34.0942 256.158 33.1109Z" fill="#334E30"/>
<path d="M273.914 39.0111L273.294 41.5422H273.057C272.237 41.178 271.544 40.9777 270.852 40.9777C269.375 40.9777 268.099 41.9246 266.914 43.8003V56.3832C266.914 59.0054 267.041 60.3894 268.719 60.3894V60.6261H263.067V60.3894C264.744 60.3894 264.872 59.0054 264.872 56.3832V44.2555C264.872 41.6333 264.179 40.65 262.775 40.4132V40.1765L266.75 38.7926H266.914V43.1811C268.591 40.5953 270.323 38.7197 272.365 38.7197C272.766 38.7197 273.349 38.8108 273.914 39.0475V39.0111Z" fill="#334E30"/>
<path d="M291.142 56.0554C291.142 58.6777 291.762 59.4971 293.238 59.8249V60.0616L289.756 61.1178H289.592L289.137 56.8567C287.423 59.2239 285.235 61.1178 282.081 61.1178C277.159 61.1178 273.805 56.4561 273.805 50.1737C273.805 43.3268 278.071 38.6651 283.485 38.6651C285.618 38.6651 287.587 39.4117 289.1 40.5043V33.7484C289.1 31.1262 288.407 30.1429 287.004 29.9062V29.6694L290.978 28.6133H291.142V56.0554ZM289.082 56.3832V45.5666C289.082 41.9611 286.821 39.266 283.303 39.266C278.581 39.266 276.011 44.0916 276.011 49.4635C276.011 54.8354 278.545 59.661 283.23 59.661C285.764 59.661 287.66 58.1496 289.1 56.3832H289.082Z" fill="#334E30"/>
<path d="M294.897 59.7336L294.569 55.1083H294.806C296.192 58.8414 298.124 60.5531 301.078 60.5531C303.703 60.5531 306.128 59.1691 306.128 56.2191C306.128 53.5969 304.45 52.65 301.132 50.8473L299.619 50.0278C297.195 48.7167 295.189 47.4056 295.189 44.2917C295.189 40.8501 297.814 38.6831 301.497 38.6831C303.174 38.6831 305.271 39.1019 306.784 39.9942V43.8001H306.547C305.69 40.7226 303.557 39.2476 301.26 39.2476C298.635 39.2476 296.793 40.8865 296.793 43.3448C296.793 45.8031 298.562 46.9139 300.731 48.0612L302.244 48.8806C305.362 50.5559 307.732 51.7031 307.732 55.1448C307.732 58.5864 304.87 61.1176 300.768 61.1176C298.507 61.1176 296.338 60.4984 294.897 59.7336Z" fill="#334E30"/>
<path d="M309.537 49.9914C309.537 43.1991 313.803 38.6831 319.29 38.6831C324.778 38.6831 328.971 42.9442 328.971 49.8275C328.971 56.7108 324.705 61.1358 319.218 61.1358C313.73 61.1358 309.537 56.8747 309.537 49.9914ZM326.674 49.9186C326.674 43.8183 323.848 39.2658 319.218 39.2658C314.587 39.2658 311.834 43.5633 311.834 49.9186C311.834 56.2738 314.66 60.5713 319.29 60.5713C323.921 60.5713 326.674 56.2738 326.674 49.9186Z" fill="#334E30"/>
<path d="M347.42 56.3832C347.42 59.0054 347.548 60.3894 349.225 60.3894V60.6261H343.574V60.3894C345.251 60.3894 345.378 59.0054 345.378 56.3832V45.5666C345.378 42.125 343.993 40.3222 341.204 40.3222C338.943 40.3222 336.774 41.5058 334.768 43.2358V56.3832C334.768 59.0054 334.896 60.3894 336.573 60.3894V60.6261H330.922V60.3894C332.599 60.3894 332.726 59.0054 332.726 56.3832V44.2555C332.726 41.6333 332.034 40.65 330.63 40.4132V40.1765L334.604 38.7926H334.768V42.8534C336.974 40.5225 339.563 38.7197 342.316 38.7197C345.433 38.7197 347.438 40.9231 347.438 45.1114V56.4196L347.42 56.3832Z" fill="#334E30"/>
<path d="M362.752 56.4741C366.981 56.4741 369.351 58.0766 369.351 61.5183C369.351 67.1633 363.317 70.4957 358.413 70.4957C353.855 70.4957 350.701 67.837 350.701 64.0312C350.701 62.2284 351.522 60.7534 353.49 59.4423L354.019 59.151H354.183C352.998 60.1707 352.47 61.5729 352.47 63.0843C352.47 66.6534 355.423 69.2756 359.889 69.2756C364.356 69.2756 367.893 66.6534 367.893 62.884C367.893 60.2982 366.124 58.7139 362.843 58.7139H354.402C352.36 58.7139 351.449 57.6578 351.449 56.4195C351.449 54.8717 352.67 53.9612 355.186 52.6137C352.761 51.5029 351.12 49.172 351.12 46.0217C351.12 41.5967 354.366 38.7378 358.577 38.7378C360.218 38.7378 361.694 39.1566 362.879 39.9578L369.442 38.9745L368.695 40.8501L363.536 40.4313C365.012 41.6514 365.905 43.5452 365.905 45.9125C365.905 50.3374 362.752 53.251 358.486 53.251C357.465 53.251 356.48 53.0871 355.605 52.7593C353.837 53.9794 353.235 54.6349 353.235 55.3815C353.235 56.0371 353.691 56.4923 354.584 56.4923H362.752V56.4741ZM353.399 45.9307C353.399 49.864 355.277 52.6501 358.522 52.6501C361.767 52.6501 363.608 49.864 363.608 45.9307C363.608 41.9973 361.712 39.2477 358.522 39.2477C355.332 39.2477 353.399 41.9973 353.399 45.9307Z" fill="#334E30"/>
<path fill-rule="evenodd" clip-rule="evenodd" d="M161.34 65.5972C153.428 66.0524 137.914 72.0616 135.033 76.5959C134.377 77.6156 134.085 78.6172 134.122 79.473C134.122 79.8919 134.231 80.2743 134.413 80.602C134.577 80.9116 134.833 81.1665 135.143 81.3668C135.726 81.731 136.546 81.9314 137.622 81.8949C142.161 81.7128 156.017 72.3166 161.34 65.5972ZM168.65 34.2763C168.541 38.4646 170.382 42.4889 174.885 44.9108C179.662 36.6072 184.11 28.0121 187.811 20.8921C188.23 20.0727 188.649 19.2896 189.05 18.5248C182.87 16.9224 177.438 19.1075 173.737 22.8588C172.187 24.4248 170.947 26.2822 170.072 28.2489C169.197 30.2155 168.705 32.2732 168.65 34.2763ZM172.825 48.4253C166.864 45.2022 164.421 39.7939 164.567 34.1853C164.64 31.6177 165.26 29.0319 166.317 26.61C167.393 24.2063 168.924 21.9301 170.82 19.9998C175.651 15.0832 182.852 12.3153 190.965 14.8282C194.246 8.63691 198.858 4.28477 203.963 1.95391C206.971 0.588179 210.143 -0.067374 213.352 0.00546522C216.56 0.0783044 219.751 0.897745 222.795 2.482C227.973 5.19526 232.658 10.1483 236.012 17.5415L237.197 20.1455L234.353 20.4186C221.628 21.6387 220.553 28.3399 219.477 34.9501C218.985 38.0093 218.493 41.0686 217.125 43.8182C216.852 44.3463 216.415 44.6923 215.849 44.838C215.302 44.9837 214.774 44.8926 214.3 44.5831C214.282 44.5831 214.263 44.5466 214.227 44.5466L214.099 44.4556C213.315 43.8911 213.042 42.8713 213.479 41.9973C214.591 39.7575 215.029 37.0442 215.467 34.3127C216.688 26.6646 217.946 18.9619 231.072 16.7403C228.264 11.6051 224.728 8.07241 220.917 6.08754C218.456 4.79464 215.868 4.12088 213.297 4.06625C210.727 4.01162 208.138 4.55791 205.677 5.66871C201.447 7.58074 197.619 11.2045 194.775 16.3579C199.752 18.8526 203.106 22.6585 205.02 27.0652C206.388 30.2155 207.008 33.639 206.953 37.117C206.953 38.0639 206.862 39.0291 206.752 39.976C206.442 42.4707 205.786 44.9473 204.802 47.3145C202.213 53.5423 197.382 58.987 190.728 61.8824C184.11 64.7595 175.669 65.0691 167.52 65.3604L166.445 65.3969C159.681 74.4289 144.094 85.7372 137.768 85.9921C135.817 86.065 134.195 85.6279 132.937 84.8267C132.025 84.244 131.314 83.4792 130.822 82.5869C130.348 81.7128 130.075 80.7295 130.038 79.6551C129.965 77.998 130.476 76.1771 131.588 74.4289C135.963 67.5638 154.121 61.8095 164.494 61.3907C167.301 57.4574 170.109 53.0324 172.825 48.4435V48.4253ZM216.415 7.94494C217.836 7.94494 218.985 9.09216 218.985 10.5125C218.985 11.9329 217.836 13.0801 216.415 13.0801C214.993 13.0801 213.844 11.9329 213.844 10.5125C213.844 9.09216 214.993 7.94494 216.415 7.94494ZM196.707 33.7482V33.8211C197.528 37.2445 197.254 40.2127 196.252 42.6528C195.504 44.4556 194.374 45.967 192.952 47.1871C191.566 48.3707 189.944 49.263 188.157 49.8821C184.602 51.084 180.409 51.1386 176.599 49.9914C174.284 53.8883 171.895 57.6759 169.453 61.1904C176.562 60.9172 183.709 60.4802 189.105 58.1311C194.72 55.691 198.822 51.0475 201.028 45.7303C202.122 43.1081 202.742 40.322 202.869 37.5723C202.869 37.3902 202.869 37.2081 202.869 37.026C202.924 34.1306 202.413 31.2717 201.283 28.6677C199.734 25.0986 196.962 21.9847 192.879 19.9452C192.405 20.8557 191.931 21.7844 191.439 22.7313C187.793 29.7421 183.435 38.1368 178.714 46.3312C181.448 46.9685 184.347 46.8411 186.826 46.0034C188.121 45.5664 189.306 44.9108 190.29 44.0732C191.238 43.2719 191.986 42.2704 192.46 41.0868C193.152 39.3751 193.316 37.2445 192.715 34.6769C192.478 33.6936 193.025 32.6921 193.991 32.3825L194.137 32.3279C194.684 32.1458 195.212 32.2004 195.723 32.4735C196.233 32.7467 196.543 33.1837 196.689 33.73" fill="#334E30"/>
</svg>
