<svg width="337" height="230" viewBox="0 0 337 230" fill="none" xmlns="http://www.w3.org/2000/svg">
<path d="M34.9367 107.81V228.417H21.4957V136.227H0.291016V128.127H6.8399C19.4359 128.127 25.1134 120.369 25.1134 107.784H34.9367V107.81Z" fill="#B08855"/>
<path d="M107.371 106.28C132.537 106.28 142.044 128.338 142.044 159.525C142.044 203.799 132.722 230 104.784 230C90.1279 230 80.6478 223.272 75.8154 208.127L88.0681 206.227C90.656 216.227 94.8019 222.929 105.312 222.929C120.997 222.929 127.388 197.942 128.259 171.583C121.869 177.282 115.162 182.084 103.939 182.084C85.8235 182.084 73.2539 167.784 73.2539 144.169C73.2539 120.554 86.3517 106.253 107.398 106.253L107.371 106.28ZM107.028 174.67C115.135 174.67 122.714 169.683 127.89 162.77C127.89 131.398 121.341 113.325 107.028 113.325C94.0889 113.325 87.6984 126.755 87.6984 142.797C87.6984 160.712 93.4023 174.67 107.028 174.67Z" fill="#B08855"/>
<path d="M201.854 229.974C185.984 229.974 174.259 219.974 170.8 204.142L182.868 202.586C184.584 212.586 190.631 222.586 202.356 222.586C216.325 222.586 222.187 207.414 222.187 193.298C222.187 177.441 214.952 162.982 199.425 162.982C192.533 162.982 186.485 165.91 183.053 172.111L176.662 171.425V107.836H232.011V121.451H186.142V160.396C191.661 156.781 196.995 155.066 204.072 155.066C223.745 155.066 236.658 169.367 236.658 191.583C236.658 215.356 222.531 230 201.828 230L201.854 229.974Z" fill="#B08855"/>
<path d="M302.385 229.974C277.378 229.974 267.211 207.916 267.211 176.728C267.211 133.641 276.533 106.253 304.471 106.253C318.942 106.253 327.075 112.982 332.753 128.127L320.341 130.026C317.569 120.211 313.951 113.325 303.441 113.325C288.442 113.325 282.052 138.997 281.022 163.984C287.412 158.127 295.149 154.169 305.342 154.169C324.646 154.169 336.053 169.156 336.053 191.398C336.053 215.858 323.642 230 302.411 230L302.385 229.974ZM302.226 161.583C294.648 161.583 286.541 165.726 281.365 172.77C281.365 204.142 288.6 222.902 302.754 222.902C315.694 222.902 321.556 208.76 321.556 192.744C321.556 175.673 316.724 161.557 302.226 161.557V161.583Z" fill="#B08855"/>
<path d="M31.6882 51.4776V54.1689C31.6882 62.6121 30.2358 73.6675 15.6856 73.6675C2.64068 73.6675 0 65.2507 0 54.4327V18.2322C0 7.07124 4.99089 0 15.8441 0C28.9155 0 31.3713 8.81266 31.3713 18.5752V21.6623H21.2047V17.467C21.2047 12.4538 20.1484 9.20844 15.8177 9.20844C11.487 9.20844 10.3515 12.2691 10.3515 17.5462V55.2243C10.3515 60.5805 11.4606 64.5119 15.9761 64.5119C20.4917 64.5119 21.4423 60.8971 21.4423 55.1979V51.4512H31.7146L31.6882 51.4776Z" fill="#B08855"/>
<path d="M38.3691 1.02905H48.5094V29.6834H61.211V1.02905H71.3512V72.6649H61.211V38.9974H48.5094V72.6649H38.3691V1.02905Z" fill="#B08855"/>
<path d="M90.2315 52.5066L87.4852 72.6649H77.1865L88.7791 1.02905H103.118L115.186 72.6649H104.597L101.534 52.5066H90.2315ZM100.319 43.1926C98.444 30.0528 96.8068 18.3378 96.041 10.5805H95.6713C95.3808 16.3853 93.1098 31.9261 91.5518 43.1926H100.345H100.319Z" fill="#B08855"/>
<path d="M130.819 40.2375V72.6385H120.679V1.02905H135.229C146.108 1.02905 152.235 5.46177 152.235 18.0739V20.9499C152.235 31.6095 148.01 34.723 144.947 35.9367C149.224 37.8101 151.548 40.9499 151.548 50.6333C151.548 56.6755 151.443 68.285 152.208 72.6649H142.412C141.461 68.3114 141.646 56.4644 141.646 51.2929C141.646 42.4011 140.484 40.2375 133.882 40.2375H130.819ZM130.819 31.847H133.935C140.035 31.847 142.095 29.1821 142.095 21.4248V18.7599C142.095 12.9552 140.774 9.44594 134.252 9.44594H130.819V31.847Z" fill="#B08855"/>
<path d="M167.736 10.4222H156.196V1.02905H189.416V10.4222H177.85V72.6649H167.71V10.4222H167.736Z" fill="#B08855"/>
<path d="M220.311 39.3932H204.467V63.3246H222.662L221.368 72.6385H194.354V1.02905H221.209V10.4222H204.494V30.1056H220.338V39.4195L220.311 39.3932Z" fill="#B08855"/>
<path d="M238.374 40.2375V72.6385H228.233V1.02905H242.81C253.69 1.02905 259.816 5.46177 259.816 18.0739V20.9499C259.816 31.6095 255.591 34.723 252.528 35.9367C256.806 37.8101 259.129 40.9499 259.129 50.6333C259.129 56.6755 259.024 68.285 259.79 72.6649H249.993C249.042 68.3114 249.253 56.4644 249.253 51.2929C249.253 42.4011 248.091 40.2375 241.49 40.2375H238.426H238.374ZM238.374 31.847H241.49C247.59 31.847 249.649 29.1821 249.649 21.4248V18.7599C249.649 12.9552 248.329 9.44594 241.806 9.44594H238.374V31.847Z" fill="#B08855"/>
<path d="M294.065 39.3932H278.221V63.3246H296.416L295.122 72.6385H268.107V1.02905H294.963V10.4222H278.248V30.1056H294.092V39.4195L294.065 39.3932Z" fill="#B08855"/>
<path d="M301.962 1.02905H316.671C331.96 1.02905 335.182 9.36678 335.182 22.1372V49.8153C335.182 60.7652 333.36 72.6385 316.538 72.6385H301.962V1.02905ZM312.102 64.0106H315.852C323.51 64.0106 324.857 59.2876 324.857 51.3193V21.2401C324.857 14.1953 323.615 9.76256 315.825 9.76256H312.102V64.0106Z" fill="#B08855"/>
</svg>
