<svg width="117" height="172" viewBox="0 0 117 172" fill="none" xmlns="http://www.w3.org/2000/svg">
<path d="M58.1261 0.629395C57.5658 0.629395 57.0988 0.629395 56.5385 0.629395C55.9781 0.629395 55.5112 0.629395 54.9508 0.629395C14.6986 1.75056 -11.4514 46.1298 4.98567 85.0901L52.4292 168.617C54.297 171.887 62.7958 171.887 64.5702 168.617L112.014 85.0901C128.451 46.1298 98.1917 1.75056 57.9394 0.629395H58.1261ZM50.935 88.7339C35.245 88.7339 22.5435 75.28 22.5435 58.6494C22.5435 42.0188 35.245 28.5649 50.935 28.5649C66.625 28.5649 79.3263 42.0188 79.3263 58.6494C79.3263 75.28 66.625 88.7339 50.935 88.7339Z" fill="url(#paint0_linear_1105_1344)"/>
<path d="M62.1426 0.630631C61.5823 0.630631 57.006 0.630631 56.539 0.630631C56.0721 0.630631 55.5117 0.630631 54.9514 0.630631C53.5505 0.630631 52.243 0.724049 50.9355 0.91091C88.853 4.74154 112.761 47.439 96.8847 85.0914L52.4297 163.292C51.4958 164.881 51.4958 166.843 52.4297 168.431C54.2976 171.794 62.7963 171.795 64.5708 168.524L112.014 84.998C128.451 46.0376 102.301 1.65827 62.0492 0.537109L62.1426 0.630631Z" fill="url(#paint1_linear_1105_1344)"/>
<path d="M50.9364 88.7344C52.8042 88.7344 54.5786 88.5476 56.2597 88.1739C43.0913 85.5578 33.1917 73.3185 33.1917 58.6499C33.1917 43.9814 43.0913 31.742 56.2597 29.126C54.4852 28.7523 52.7108 28.5654 50.9364 28.5654C35.2464 28.5654 22.5449 42.0194 22.5449 58.6499C22.5449 75.2805 35.2464 88.7344 50.9364 88.7344Z" fill="url(#paint2_linear_1105_1344)"/>
<defs>
<linearGradient id="paint0_linear_1105_1344" x1="12.0835" y1="102.562" x2="119.964" y2="58.9597" gradientUnits="userSpaceOnUse">
<stop stop-color="#951531"/>
<stop offset="0.07" stop-color="#A6162E"/>
<stop offset="0.19" stop-color="#C0182A"/>
<stop offset="0.33" stop-color="#D41A27"/>
<stop offset="0.48" stop-color="#E21B25"/>
<stop offset="0.67" stop-color="#EA1B24"/>
<stop offset="1" stop-color="#ED1C24"/>
</linearGradient>
<linearGradient id="paint1_linear_1105_1344" x1="83.9965" y1="171.047" x2="83.9965" y2="0.630539" gradientUnits="userSpaceOnUse">
<stop stop-color="#ED1C24"/>
<stop offset="0.18" stop-color="#E51B25"/>
<stop offset="0.46" stop-color="#CF1928"/>
<stop offset="0.81" stop-color="#AB162D"/>
<stop offset="1" stop-color="#951531"/>
</linearGradient>
<linearGradient id="paint2_linear_1105_1344" x1="39.449" y1="88.7344" x2="39.449" y2="28.5654" gradientUnits="userSpaceOnUse">
<stop stop-color="#ED1C24"/>
<stop offset="0.19" stop-color="#E81B24"/>
<stop offset="0.42" stop-color="#D91A26"/>
<stop offset="0.67" stop-color="#C1182A"/>
<stop offset="0.92" stop-color="#A0152F"/>
<stop offset="1" stop-color="#951531"/>
</linearGradient>
</defs>
</svg>
